<svg width="318" height="359" viewBox="0 0 318 359" fill="none" xmlns="http://www.w3.org/2000/svg">
<path fill-rule="evenodd" clip-rule="evenodd" d="M66.5733 18.5H28.5733V1H197.573C261.973 2.2 296.74 36.1667 306.073 53C320.873 78.2 316.907 108.833 313.073 121C294.793 168.943 249.174 185.385 220.073 188.791L226.073 167.64C253.394 153.785 262.239 118.057 263.073 99C261.873 33.8 224.24 17.8333 205.573 18H140.573C128.973 16.8 125.407 24.8333 125.073 29V44V59V173H206.073V181.25V189.5H125.073V321.5C125.073 322.739 125.123 323.905 125.218 325C125.831 332.131 128.317 336.293 131.073 338.576C133.359 340.469 135.831 341.07 137.573 341H182.573V358.5H28.0733V341H64.0733C70.0836 341.376 73.6099 338.606 75.5734 334.854C77.7915 330.616 78.0154 325.125 77.5733 321.5V104.5V59V31.5C77.9733 21.5 70.4067 18.6667 66.5733 18.5Z" fill="#FAFAFA"/>
<path d="M77.5733 59C58.9067 69.3333 18.0733 108 4.07334 180C-1.92666 209.333 -3.22666 277.3 39.5733 314.5C46.74 320.403 63.9734 332.737 75.5734 334.854C77.7915 330.616 78.0154 325.125 77.5733 321.5C61.9067 316.833 31.7734 296 36.5734 250C37.9067 224.5 47.9733 159.7 77.5733 104.5V59Z" fill="#1660D0"/>
<path d="M189.073 253.5C172.273 301.5 139.503 321.167 125.218 325C125.831 332.131 128.317 336.293 131.073 338.576C172.273 327.436 197.573 279.884 205.073 257.5L189.073 253.5Z" fill="#1660D0"/>
<path d="M224.573 97.5C220.573 102.3 215.573 99.5 213.573 97.5C208.373 85.5 195.74 71.5 190.073 66C171.273 44 138.907 42.1667 125.073 44V59C156.273 52.6 177.073 71.6667 183.573 82C203.973 111.6 207.073 155 206.073 173V181.25V189.5L205.073 195L217.073 198.5L220.073 188.791L226.073 167.64L251.073 78L241.073 75L224.573 97.5Z" fill="#1660D0"/>
<path d="M77.5733 321.5C78.0154 325.125 77.7915 330.616 75.5734 334.854M77.5733 321.5C61.9067 316.833 31.7734 296 36.5734 250C37.9067 224.5 47.9733 159.7 77.5733 104.5M77.5733 321.5V104.5M125.073 321.5C125.073 305.5 125.073 226.833 125.073 189.5M125.073 321.5V189.5M125.073 321.5C125.073 322.739 125.123 323.905 125.218 325M125.073 189.5H206.073M226.073 167.64C253.394 153.785 262.239 118.057 263.073 99C261.873 33.8 224.24 17.8333 205.573 18H140.573C128.973 16.8 125.407 24.8333 125.073 29V44M226.073 167.64L251.073 78L241.073 75L224.573 97.5C220.573 102.3 215.573 99.5 213.573 97.5C208.373 85.5 195.74 71.5 190.073 66C171.273 44 138.907 42.1667 125.073 44M226.073 167.64L220.073 188.791M220.073 188.791C249.174 185.385 294.793 168.943 313.073 121C316.907 108.833 320.873 78.2 306.073 53C296.74 36.1667 261.973 2.2 197.573 1H28.5733V18.5H66.5733C70.4067 18.6667 77.9733 21.5 77.5733 31.5V59M220.073 188.791L217.073 198.5L205.073 195L206.073 189.5M206.073 189.5V181.25V173M206.073 173H125.073V59M206.073 173C207.073 155 203.973 111.6 183.573 82C177.073 71.6667 156.273 52.6 125.073 59M125.073 59V44M77.5733 59C58.9067 69.3333 18.0733 108 4.07334 180C-1.92666 209.333 -3.22666 277.3 39.5733 314.5C46.74 320.403 63.9734 332.737 75.5734 334.854M77.5733 59V104.5M75.5734 334.854C73.6099 338.606 70.0836 341.376 64.0733 341H28.0733V358.5H182.573V341H137.573C135.831 341.07 133.359 340.469 131.073 338.576M125.218 325C139.503 321.167 172.273 301.5 189.073 253.5L205.073 257.5C197.573 279.884 172.273 327.436 131.073 338.576M125.218 325C125.831 332.131 128.317 336.293 131.073 338.576" stroke="black"/>
</svg>
