<svg width="881" height="883" viewBox="0 0 881 883" fill="none" xmlns="http://www.w3.org/2000/svg">
<path d="M319.5 343.778V14C319.5 7.40034 319.5 4.1005 321.55 2.05025C323.6 0 326.9 0 333.5 0H544C550.6 0 553.899 0 555.95 2.05025C558 4.1005 558 7.40034 558 14V343.778H866.076C872.675 343.778 875.975 343.778 878.025 345.829C880.076 347.879 880.076 351.179 880.076 357.778V409.234H858V385C858 375.572 858 370.858 855.071 367.929C852.142 365 847.428 365 838 365H554.5C545.072 365 540.358 365 537.429 362.071C534.5 359.142 534.5 354.428 534.5 345V41C534.5 31.5719 534.5 26.8579 531.571 23.9289C528.642 21 523.928 21 514.5 21H363.675C354.172 21 349.42 21 346.486 23.9598C343.552 26.9197 343.593 31.6712 343.676 41.1744L346.324 344.826C346.407 354.329 346.448 359.08 343.514 362.04C340.58 365 335.828 365 326.325 365H44.5C35.0719 365 30.3579 365 27.4289 367.929C24.5 370.858 24.5 375.572 24.5 385V488.5C24.5 497.928 24.5 502.642 27.4289 505.571C30.3579 508.5 35.0719 508.5 44.5 508.5H333C342.428 508.5 347.142 508.5 350.071 511.429C353 514.358 353 519.072 353 528.5V844.5C353 853.928 353 858.642 355.929 861.571C358.858 864.5 363.572 864.5 373 864.5H504.5C513.928 864.5 518.642 864.5 521.571 861.571C524.5 858.642 524.5 853.928 524.5 844.5V580.848H550.049V866.073C550.049 872.672 550.049 875.972 547.998 878.022C545.948 880.073 542.648 880.073 536.049 880.073H344.03C337.431 880.073 334.131 880.073 332.081 878.022C330.03 875.972 330.03 872.672 330.03 866.073V529.419H14.0032C7.40351 529.419 4.10368 529.419 2.05343 527.368C0.00317383 525.318 0.00317383 522.018 0.00317383 515.419V357.778C0.00317383 351.179 0.00317383 347.879 2.05343 345.829C4.10368 343.778 7.40351 343.778 14.0032 343.778H319.5Z" fill="url(#paint0_linear_566_399)"/>
<path d="M728.041 184.287C698.121 156.291 658.013 140.679 616.688 140.812C574.005 140.971 533.904 157.367 503.711 187.011L446.137 243.541L390 188.421C327.473 127.037 225.654 125.114 162.515 185.919C98.755 247.3 98.3738 348.183 161.386 410.026L466.248 709.341C501.048 743.504 502.669 799.132 468.556 833.935C433.65 869.549 375.697 869.967 340.252 835.172L264.737 761.032C261.551 757.906 261.228 752.958 263.962 749.426C275.111 735.026 281.292 716.729 279.904 697.014C277.186 658.076 244.765 626.78 205.068 624.744C159.101 622.401 120.995 658.733 121.6 703.497C122.164 744.952 156.576 779.171 198.79 780.217C212.407 780.55 225.275 777.493 236.593 771.856C240.028 770.146 244.207 770.867 246.918 773.534L324.941 850.15C346.673 871.488 375.205 882.145 403.746 882.145C432.278 882.145 460.836 871.472 482.551 850.15C526.008 807.493 526.008 738.065 482.551 695.407L176.663 395.046C122.447 341.826 122.447 255.235 176.663 202.006C230.873 148.786 319.092 148.786 373.285 202.006L438.215 265.756C440.393 267.895 443.273 268.907 446.137 268.836C448.993 268.907 451.873 267.895 454.05 265.756L517.69 203.282C544.085 177.367 579.709 162.102 617.027 162.031C654.269 161.96 689.305 176.165 715.627 202.006C741.933 227.849 756.396 262.193 756.349 298.739C756.293 335.397 740.73 370.407 714.335 396.338L693.766 416.526C692.072 418.19 689.773 419.124 687.377 419.124H626.06C622.657 419.124 619.526 417.24 618.017 414.254L588.405 356.102C585.088 349.577 575.627 349.577 572.318 356.102L521.417 455.954C518.102 462.479 508.638 462.479 505.332 455.954L487.949 421.814C484.641 415.291 475.177 415.291 471.862 421.814L454.488 455.938C451.17 462.454 441.709 462.454 438.4 455.938L387.532 356.063C384.224 349.547 374.763 349.547 371.445 356.063L341.833 414.215C340.299 417.198 337.186 419.092 333.791 419.092H279.525C273.602 419.092 268.457 423.556 268.28 429.377C268.101 435.378 272.991 440.285 279.073 440.285H347.141C350.537 440.285 353.675 438.401 355.184 435.417L371.445 403.455C374.763 396.939 384.224 396.939 387.532 403.455L438.4 503.333C441.709 509.856 451.17 509.856 454.488 503.333L471.862 469.209C475.177 462.693 484.641 462.693 487.949 469.209L505.332 503.356C508.638 509.872 518.102 509.872 521.417 503.356L572.278 403.478C575.594 396.978 585.057 396.955 588.363 403.478L604.65 435.433C606.175 438.417 609.29 440.311 612.693 440.311H695.549C695.549 440.311 695.549 440.311 695.566 440.311H695.58C696.25 440.311 696.895 440.239 697.526 440.127C697.566 440.127 697.613 440.111 697.653 440.111C698.283 439.985 698.912 439.81 699.509 439.581C699.559 439.565 699.615 439.551 699.672 439.526C700.26 439.28 700.841 438.979 701.38 438.647C701.429 438.608 701.486 438.592 701.542 438.559C702.114 438.172 702.655 437.745 703.156 437.27C703.18 437.253 703.18 437.253 703.196 437.231L729.316 411.587C760.229 381.238 778.274 340.132 777.935 297.204C777.573 254.278 759.858 214.057 728.041 184.287ZM143.195 702.437C143.195 671.218 169.066 645.836 200.84 645.836C232.616 645.836 258.494 671.244 258.494 702.437C258.494 733.646 232.616 759.038 200.84 759.038C169.066 759.038 143.195 733.646 143.195 702.437Z" fill="#80D1FF"/>
<path d="M789.838 491.22V573.54C789.838 577.491 793.131 578.479 794.778 578.479H807.949C810.583 578.479 811.242 575.186 811.242 573.54V527.052C811.242 526.713 811.692 526.595 811.858 526.89L823.945 548.378C825.331 550.842 826.15 553.953 828.571 555.414C829.254 555.827 830.003 556.175 830.717 556.454C831.971 556.944 833.325 557.076 834.672 557.076H837.584C838.371 557.076 839.588 556.293 840.675 555.428C841.959 554.406 842.914 553.046 843.681 551.595L856.72 526.966C856.881 526.663 857.341 526.777 857.341 527.12V573.54C857.341 577.491 860.633 578.479 862.28 578.479H875.451C879.402 578.479 880.39 575.186 880.39 573.54V491.22C880.39 487.269 877.097 486.281 875.451 486.281H865.573C863.878 486.281 862.093 487.189 860.743 488.129C859.503 488.993 858.613 490.242 857.874 491.561L836.223 530.223C836.098 530.447 835.776 530.448 835.65 530.224L814.534 492.867C810.583 487.598 807.4 486.281 806.302 486.281H796.424C791.156 486.281 789.838 489.574 789.838 491.22Z" fill="#7FD1FF"/>
<path fill-rule="evenodd" clip-rule="evenodd" d="M687.762 573.54L716.94 495.221C717.018 495.01 717.098 494.795 717.178 494.575C718.524 490.925 720.236 486.281 723.983 486.281H742.093C743.739 486.281 747.361 487.269 748.679 491.22L778.314 571.893C779.411 574.089 780.289 578.479 775.021 578.479H767.292C762.63 578.479 757.349 577.709 755.264 573.54L750.325 562.015H715.751L710.811 575.186C710.263 576.284 708.506 578.479 705.872 578.479H691.054C689.344 578.479 686.29 577.491 687.762 573.54ZM745.344 543.774C745.365 543.839 745.317 543.905 745.249 543.905H720.833C720.763 543.905 720.715 543.836 720.739 543.771L733.761 507.96C733.793 507.87 733.921 507.873 733.95 507.964L745.344 543.774Z" fill="#7FD1FF"/>
<path d="M613.318 529.087C607.282 522.502 599.489 505.709 616.611 491.22C619.355 488.476 628.795 482.988 644.6 482.988C654.479 483.537 675.223 488.586 679.174 504.391C680.821 507.684 682.138 513.94 674.235 512.623H661.064C658.869 512.623 654.479 511.965 654.479 509.331C653.93 507.135 650.527 502.745 641.307 502.745C637.466 502.745 630.112 504.391 631.429 510.977C631.429 513.172 633.734 517.892 642.954 519.209C655.576 521.404 681.15 528.758 682.467 540.612C686.309 551.039 685.76 573.211 652.832 578.479C639.661 579.577 612.002 577.821 606.733 562.015C604.538 557.625 601.465 548.844 606.733 548.844H623.197C624.844 548.844 628.466 549.832 629.783 553.783C631.978 557.076 639.99 562.344 654.479 557.076C657.771 554.881 662.381 549.173 654.479 543.905C651.186 542.258 642.625 538.966 634.722 538.966C628.136 537.319 614.635 533.039 613.318 529.087Z" fill="#7FD1FF"/>
<defs>
<linearGradient id="paint0_linear_566_399" x1="306.5" y1="224" x2="418" y2="782.5" gradientUnits="userSpaceOnUse">
<stop stop-color="#00C2FF"/>
<stop offset="1" stop-color="#2EA9DE"/>
</linearGradient>
</defs>
</svg>
