<svg width="433" height="105" viewBox="0 0 433 105" fill="none" xmlns="http://www.w3.org/2000/svg">
<path d="M21.8051 71.5604L33.0332 52.6179H72.3183L61.3738 71.5604H21.8051Z" fill="#2EC2CB"/>
<path d="M50.4292 52.618L60.3214 35.7803H82L72.3183 52.618H50.4292Z" fill="#179FBD"/>
<path d="M60.1772 35.7802L50.2186 18.9425H72.3182L81.9999 35.7802H60.1772Z" fill="#2EC2CB"/>
<path d="M32.5391 19.3634L21.8051 0H61.3738L72.3183 18.9425L32.5391 19.3634Z" fill="#179FBD"/>
<path d="M5.91016 104.449L21.8045 71.5605H41.3784L30.6443 90.082L5.91016 104.449Z" fill="#179FBD"/>
<path d="M30.15 19.9949L23.9627 30.9306C22.1927 34.0589 22.2378 37.8964 24.0807 40.9823L30.15 51.1447L18.9949 70.5082L1.85607 40.3799C0.0888638 37.2734 0.113974 33.4598 1.92191 30.3768L18.9949 1.26288L30.15 19.9949Z" fill="#EAEAEA"/>
<path d="M248.368 19.764C252.088 19.764 254.944 20.424 256.936 21.744C258.928 23.04 259.924 25.176 259.924 28.152C259.924 31.152 258.916 33.324 256.9 34.668C254.884 35.988 252.004 36.648 248.26 36.648H246.496V45H240.88V20.412C242.104 20.172 243.4 20.004 244.768 19.908C246.136 19.812 247.336 19.764 248.368 19.764ZM248.728 24.552C248.32 24.552 247.912 24.564 247.504 24.588C247.12 24.612 246.784 24.636 246.496 24.66V31.86H248.26C250.204 31.86 251.668 31.596 252.652 31.068C253.636 30.54 254.128 29.556 254.128 28.116C254.128 27.42 253.996 26.844 253.732 26.388C253.492 25.932 253.132 25.572 252.652 25.308C252.196 25.02 251.632 24.828 250.96 24.732C250.288 24.612 249.544 24.552 248.728 24.552ZM267.661 35.676C267.661 33.996 267.913 32.532 268.417 31.284C268.945 30.012 269.629 28.956 270.469 28.116C271.309 27.276 272.269 26.64 273.349 26.208C274.453 25.776 275.581 25.56 276.733 25.56C279.421 25.56 281.545 26.388 283.105 28.044C284.665 29.676 285.445 32.088 285.445 35.28C285.445 35.592 285.433 35.94 285.409 36.324C285.385 36.684 285.361 37.008 285.337 37.296H273.169C273.289 38.4 273.805 39.276 274.717 39.924C275.629 40.572 276.853 40.896 278.389 40.896C279.373 40.896 280.333 40.812 281.269 40.644C282.229 40.452 283.009 40.224 283.609 39.96L284.329 44.316C284.041 44.46 283.657 44.604 283.177 44.748C282.697 44.892 282.157 45.012 281.557 45.108C280.981 45.228 280.357 45.324 279.685 45.396C279.013 45.468 278.341 45.504 277.669 45.504C275.965 45.504 274.477 45.252 273.205 44.748C271.957 44.244 270.913 43.56 270.073 42.696C269.257 41.808 268.645 40.764 268.237 39.564C267.853 38.364 267.661 37.068 267.661 35.676ZM280.261 33.624C280.237 33.168 280.153 32.724 280.009 32.292C279.889 31.86 279.685 31.476 279.397 31.14C279.133 30.804 278.785 30.528 278.353 30.312C277.945 30.096 277.429 29.988 276.805 29.988C276.205 29.988 275.689 30.096 275.257 30.312C274.825 30.504 274.465 30.768 274.177 31.104C273.889 31.44 273.661 31.836 273.493 32.292C273.349 32.724 273.241 33.168 273.169 33.624H280.261ZM299.556 34.92C299.556 37.92 300.768 39.42 303.192 39.42C303.744 39.42 304.26 39.348 304.74 39.204C305.22 39.06 305.628 38.892 305.964 38.7V30.132C305.7 30.084 305.388 30.048 305.028 30.024C304.668 29.976 304.248 29.952 303.768 29.952C302.352 29.952 301.296 30.42 300.6 31.356C299.904 32.292 299.556 33.48 299.556 34.92ZM311.328 42.624C311.328 45.72 310.536 48.012 308.952 49.5C307.392 51.012 304.968 51.768 301.68 51.768C300.528 51.768 299.376 51.66 298.224 51.444C297.072 51.252 296.004 50.988 295.02 50.652L295.956 46.152C296.796 46.488 297.672 46.752 298.584 46.944C299.52 47.136 300.576 47.232 301.752 47.232C303.288 47.232 304.368 46.896 304.992 46.224C305.64 45.552 305.964 44.688 305.964 43.632V42.948C305.388 43.212 304.788 43.416 304.164 43.56C303.564 43.68 302.904 43.74 302.184 43.74C299.568 43.74 297.564 42.972 296.172 41.436C294.78 39.876 294.084 37.704 294.084 34.92C294.084 33.528 294.3 32.268 294.732 31.14C295.164 29.988 295.788 29.004 296.604 28.188C297.444 27.372 298.464 26.748 299.664 26.316C300.864 25.86 302.22 25.632 303.732 25.632C304.38 25.632 305.04 25.668 305.712 25.74C306.408 25.788 307.092 25.86 307.764 25.956C308.436 26.052 309.072 26.172 309.672 26.316C310.296 26.436 310.848 26.568 311.328 26.712V42.624ZM339.471 35.496C339.471 36.984 339.255 38.352 338.823 39.6C338.391 40.824 337.767 41.88 336.951 42.768C336.135 43.632 335.151 44.304 333.999 44.784C332.871 45.264 331.599 45.504 330.183 45.504C328.791 45.504 327.519 45.264 326.367 44.784C325.239 44.304 324.267 43.632 323.451 42.768C322.635 41.88 321.999 40.824 321.543 39.6C321.087 38.352 320.859 36.984 320.859 35.496C320.859 34.008 321.087 32.652 321.543 31.428C322.023 30.204 322.671 29.16 323.487 28.296C324.327 27.432 325.311 26.76 326.439 26.28C327.591 25.8 328.839 25.56 330.183 25.56C331.551 25.56 332.799 25.8 333.927 26.28C335.079 26.76 336.063 27.432 336.879 28.296C337.695 29.16 338.331 30.204 338.787 31.428C339.243 32.652 339.471 34.008 339.471 35.496ZM333.999 35.496C333.999 33.84 333.663 32.544 332.991 31.608C332.343 30.648 331.407 30.168 330.183 30.168C328.959 30.168 328.011 30.648 327.339 31.608C326.667 32.544 326.331 33.84 326.331 35.496C326.331 37.152 326.667 38.472 327.339 39.456C328.011 40.416 328.959 40.896 330.183 40.896C331.407 40.896 332.343 40.416 332.991 39.456C333.663 38.472 333.999 37.152 333.999 35.496ZM360.438 30.816C359.958 30.696 359.394 30.576 358.746 30.456C358.098 30.312 357.402 30.24 356.658 30.24C356.322 30.24 355.914 30.276 355.434 30.348C354.978 30.396 354.63 30.456 354.39 30.528V45H349.026V27.072C349.986 26.736 351.114 26.424 352.41 26.136C353.73 25.824 355.194 25.668 356.802 25.668C357.09 25.668 357.438 25.692 357.846 25.74C358.254 25.764 358.662 25.812 359.07 25.884C359.478 25.932 359.886 26.004 360.294 26.1C360.702 26.172 361.05 26.268 361.338 26.388L360.438 30.816ZM376.498 41.256C377.026 41.256 377.53 41.244 378.01 41.22C378.49 41.196 378.874 41.16 379.162 41.112V37.044C378.946 36.996 378.622 36.948 378.19 36.9C377.758 36.852 377.362 36.828 377.002 36.828C376.498 36.828 376.018 36.864 375.562 36.936C375.13 36.984 374.746 37.092 374.41 37.26C374.074 37.428 373.81 37.656 373.618 37.944C373.426 38.232 373.33 38.592 373.33 39.024C373.33 39.864 373.606 40.452 374.158 40.788C374.734 41.1 375.514 41.256 376.498 41.256ZM376.066 25.56C377.65 25.56 378.97 25.74 380.026 26.1C381.082 26.46 381.922 26.976 382.546 27.648C383.194 28.32 383.65 29.136 383.914 30.096C384.178 31.056 384.31 32.124 384.31 33.3V44.46C383.542 44.628 382.474 44.82 381.106 45.036C379.738 45.276 378.082 45.396 376.138 45.396C374.914 45.396 373.798 45.288 372.79 45.072C371.806 44.856 370.954 44.508 370.234 44.028C369.514 43.524 368.962 42.876 368.578 42.084C368.194 41.292 368.002 40.32 368.002 39.168C368.002 38.064 368.218 37.128 368.65 36.36C369.106 35.592 369.706 34.98 370.45 34.524C371.194 34.068 372.046 33.744 373.006 33.552C373.966 33.336 374.962 33.228 375.994 33.228C376.69 33.228 377.302 33.264 377.83 33.336C378.382 33.384 378.826 33.456 379.162 33.552V33.048C379.162 32.136 378.886 31.404 378.334 30.852C377.782 30.3 376.822 30.024 375.454 30.024C374.542 30.024 373.642 30.096 372.754 30.24C371.866 30.36 371.098 30.54 370.45 30.78L369.766 26.46C370.078 26.364 370.462 26.268 370.918 26.172C371.398 26.052 371.914 25.956 372.466 25.884C373.018 25.788 373.594 25.716 374.194 25.668C374.818 25.596 375.442 25.56 376.066 25.56ZM405.973 30.816C405.493 30.696 404.929 30.576 404.281 30.456C403.633 30.312 402.937 30.24 402.193 30.24C401.857 30.24 401.449 30.276 400.969 30.348C400.513 30.396 400.165 30.456 399.925 30.528V45H394.561V27.072C395.521 26.736 396.649 26.424 397.945 26.136C399.265 25.824 400.729 25.668 402.337 25.668C402.625 25.668 402.973 25.692 403.381 25.74C403.789 25.764 404.197 25.812 404.605 25.884C405.013 25.932 405.421 26.004 405.829 26.1C406.237 26.172 406.585 26.268 406.873 26.388L405.973 30.816ZM432.509 35.496C432.509 36.984 432.293 38.352 431.861 39.6C431.429 40.824 430.805 41.88 429.989 42.768C429.173 43.632 428.189 44.304 427.037 44.784C425.909 45.264 424.637 45.504 423.221 45.504C421.829 45.504 420.557 45.264 419.405 44.784C418.277 44.304 417.305 43.632 416.489 42.768C415.673 41.88 415.037 40.824 414.581 39.6C414.125 38.352 413.897 36.984 413.897 35.496C413.897 34.008 414.125 32.652 414.581 31.428C415.061 30.204 415.709 29.16 416.525 28.296C417.365 27.432 418.349 26.76 419.477 26.28C420.629 25.8 421.877 25.56 423.221 25.56C424.589 25.56 425.837 25.8 426.965 26.28C428.117 26.76 429.101 27.432 429.917 28.296C430.733 29.16 431.369 30.204 431.825 31.428C432.281 32.652 432.509 34.008 432.509 35.496ZM427.037 35.496C427.037 33.84 426.701 32.544 426.029 31.608C425.381 30.648 424.445 30.168 423.221 30.168C421.997 30.168 421.049 30.648 420.377 31.608C419.705 32.544 419.369 33.84 419.369 35.496C419.369 37.152 419.705 38.472 420.377 39.456C421.049 40.416 421.997 40.896 423.221 40.896C424.445 40.896 425.381 40.416 426.029 39.456C426.701 38.472 427.037 37.152 427.037 35.496Z" fill="#2EC1CB"/>
<path d="M112.064 80V63.368H122.096V65.36H114.392V70.376H121.232V72.344H114.392V80H112.064ZM137.737 79.64C137.225 79.768 136.545 79.904 135.697 80.048C134.865 80.192 133.897 80.264 132.793 80.264C131.833 80.264 131.025 80.128 130.369 79.856C129.713 79.568 129.185 79.168 128.785 78.656C128.385 78.144 128.097 77.544 127.921 76.856C127.745 76.152 127.657 75.376 127.657 74.528V67.52H129.889V74.048C129.889 75.568 130.129 76.656 130.609 77.312C131.089 77.968 131.897 78.296 133.033 78.296C133.273 78.296 133.521 78.288 133.777 78.272C134.033 78.256 134.273 78.24 134.497 78.224C134.721 78.192 134.921 78.168 135.097 78.152C135.289 78.12 135.425 78.088 135.505 78.056V67.52H137.737V79.64ZM148.927 80.24C147.551 80.208 146.575 79.912 145.999 79.352C145.423 78.792 145.135 77.92 145.135 76.736V61.76L147.367 61.376V76.376C147.367 76.744 147.399 77.048 147.463 77.288C147.527 77.528 147.631 77.72 147.775 77.864C147.919 78.008 148.111 78.12 148.351 78.2C148.591 78.264 148.887 78.32 149.239 78.368L148.927 80.24ZM159.089 80.24C157.713 80.208 156.737 79.912 156.161 79.352C155.585 78.792 155.297 77.92 155.297 76.736V61.76L157.529 61.376V76.376C157.529 76.744 157.561 77.048 157.625 77.288C157.689 77.528 157.793 77.72 157.937 77.864C158.081 78.008 158.273 78.12 158.513 78.2C158.753 78.264 159.049 78.32 159.401 78.368L159.089 80.24ZM164.212 71.768H170.14V73.856H164.212V71.768ZM180.287 78.344C182.719 78.344 183.935 77.512 183.935 75.848C183.935 75.336 183.823 74.904 183.599 74.552C183.391 74.184 183.103 73.872 182.735 73.616C182.367 73.344 181.943 73.112 181.463 72.92C180.999 72.728 180.503 72.536 179.975 72.344C179.367 72.136 178.791 71.904 178.247 71.648C177.703 71.376 177.231 71.064 176.831 70.712C176.431 70.344 176.111 69.912 175.871 69.416C175.647 68.92 175.535 68.32 175.535 67.616C175.535 66.16 176.031 65.024 177.023 64.208C178.015 63.392 179.383 62.984 181.127 62.984C182.135 62.984 183.047 63.096 183.863 63.32C184.695 63.528 185.303 63.76 185.687 64.016L184.943 65.912C184.607 65.704 184.103 65.504 183.431 65.312C182.775 65.104 182.007 65 181.127 65C180.679 65 180.263 65.048 179.879 65.144C179.495 65.24 179.159 65.384 178.871 65.576C178.583 65.768 178.351 66.016 178.175 66.32C178.015 66.608 177.935 66.952 177.935 67.352C177.935 67.8 178.023 68.176 178.199 68.48C178.375 68.784 178.623 69.056 178.943 69.296C179.263 69.52 179.631 69.728 180.047 69.92C180.479 70.112 180.951 70.304 181.463 70.496C182.183 70.784 182.839 71.072 183.431 71.36C184.039 71.648 184.559 71.992 184.991 72.392C185.439 72.792 185.783 73.272 186.023 73.832C186.263 74.376 186.383 75.04 186.383 75.824C186.383 77.28 185.847 78.4 184.775 79.184C183.719 79.968 182.223 80.36 180.287 80.36C179.631 80.36 179.023 80.312 178.463 80.216C177.919 80.136 177.431 80.04 176.999 79.928C176.567 79.8 176.191 79.672 175.871 79.544C175.567 79.4 175.327 79.28 175.151 79.184L175.847 77.264C176.215 77.472 176.775 77.704 177.527 77.96C178.279 78.216 179.199 78.344 180.287 78.344ZM194.741 67.52H199.469V69.392H194.741V75.152C194.741 75.776 194.789 76.296 194.885 76.712C194.981 77.112 195.125 77.432 195.317 77.672C195.509 77.896 195.749 78.056 196.037 78.152C196.325 78.248 196.661 78.296 197.045 78.296C197.717 78.296 198.253 78.224 198.653 78.08C199.069 77.92 199.357 77.808 199.517 77.744L199.949 79.592C199.725 79.704 199.333 79.84 198.773 80C198.213 80.176 197.573 80.264 196.853 80.264C196.005 80.264 195.301 80.16 194.741 79.952C194.197 79.728 193.757 79.4 193.421 78.968C193.085 78.536 192.845 78.008 192.701 77.384C192.573 76.744 192.509 76.008 192.509 75.176V64.04L194.741 63.656V67.52ZM210.133 78.392C210.661 78.392 211.125 78.384 211.525 78.368C211.941 78.336 212.285 78.288 212.557 78.224V74.504C212.397 74.424 212.133 74.36 211.765 74.312C211.413 74.248 210.981 74.216 210.469 74.216C210.133 74.216 209.773 74.24 209.389 74.288C209.021 74.336 208.677 74.44 208.357 74.6C208.053 74.744 207.797 74.952 207.589 75.224C207.381 75.48 207.277 75.824 207.277 76.256C207.277 77.056 207.533 77.616 208.045 77.936C208.557 78.24 209.253 78.392 210.133 78.392ZM209.941 67.208C210.837 67.208 211.589 67.328 212.197 67.568C212.821 67.792 213.317 68.12 213.685 68.552C214.069 68.968 214.341 69.472 214.501 70.064C214.661 70.64 214.741 71.28 214.741 71.984V79.784C214.549 79.816 214.277 79.864 213.925 79.928C213.589 79.976 213.205 80.024 212.773 80.072C212.341 80.12 211.869 80.16 211.357 80.192C210.861 80.24 210.365 80.264 209.869 80.264C209.165 80.264 208.517 80.192 207.925 80.048C207.333 79.904 206.821 79.68 206.389 79.376C205.957 79.056 205.621 78.64 205.381 78.128C205.141 77.616 205.021 77 205.021 76.28C205.021 75.592 205.157 75 205.429 74.504C205.717 74.008 206.101 73.608 206.581 73.304C207.061 73 207.621 72.776 208.261 72.632C208.901 72.488 209.573 72.416 210.277 72.416C210.501 72.416 210.733 72.432 210.973 72.464C211.213 72.48 211.437 72.512 211.645 72.56C211.869 72.592 212.061 72.624 212.221 72.656C212.381 72.688 212.493 72.712 212.557 72.728V72.104C212.557 71.736 212.517 71.376 212.437 71.024C212.357 70.656 212.213 70.336 212.005 70.064C211.797 69.776 211.509 69.552 211.141 69.392C210.789 69.216 210.325 69.128 209.749 69.128C209.013 69.128 208.365 69.184 207.805 69.296C207.261 69.392 206.853 69.496 206.581 69.608L206.317 67.76C206.605 67.632 207.085 67.512 207.757 67.4C208.429 67.272 209.157 67.208 209.941 67.208ZM227.472 80.288C226.464 80.288 225.576 80.128 224.808 79.808C224.056 79.488 223.416 79.04 222.888 78.464C222.376 77.888 221.992 77.208 221.736 76.424C221.48 75.624 221.352 74.744 221.352 73.784C221.352 72.824 221.488 71.944 221.76 71.144C222.048 70.344 222.448 69.656 222.96 69.08C223.472 68.488 224.096 68.032 224.832 67.712C225.584 67.376 226.416 67.208 227.328 67.208C227.888 67.208 228.448 67.256 229.008 67.352C229.568 67.448 230.104 67.6 230.616 67.808L230.112 69.704C229.776 69.544 229.384 69.416 228.936 69.32C228.504 69.224 228.04 69.176 227.544 69.176C226.296 69.176 225.336 69.568 224.664 70.352C224.008 71.136 223.68 72.28 223.68 73.784C223.68 74.456 223.752 75.072 223.896 75.632C224.056 76.192 224.296 76.672 224.616 77.072C224.952 77.472 225.376 77.784 225.888 78.008C226.4 78.216 227.024 78.32 227.76 78.32C228.352 78.32 228.888 78.264 229.368 78.152C229.848 78.04 230.224 77.92 230.496 77.792L230.808 79.664C230.68 79.744 230.496 79.824 230.256 79.904C230.016 79.968 229.744 80.024 229.44 80.072C229.136 80.136 228.808 80.184 228.456 80.216C228.12 80.264 227.792 80.288 227.472 80.288ZM241.316 73.136C241.796 73.504 242.3 73.96 242.828 74.504C243.372 75.048 243.9 75.64 244.412 76.28C244.94 76.904 245.436 77.544 245.9 78.2C246.364 78.84 246.756 79.44 247.076 80H244.46C244.124 79.44 243.732 78.872 243.284 78.296C242.852 77.704 242.396 77.144 241.916 76.616C241.436 76.072 240.948 75.576 240.452 75.128C239.956 74.68 239.484 74.304 239.036 74V80H236.804V61.76L239.036 61.376V72.752C239.42 72.368 239.844 71.944 240.308 71.48C240.772 71.016 241.228 70.544 241.676 70.064C242.124 69.584 242.548 69.128 242.948 68.696C243.348 68.248 243.692 67.856 243.98 67.52H246.596C246.228 67.92 245.828 68.36 245.396 68.84C244.964 69.32 244.516 69.808 244.052 70.304C243.588 70.784 243.116 71.272 242.636 71.768C242.172 72.248 241.732 72.704 241.316 73.136ZM275.898 71.672C275.898 73.112 275.674 74.368 275.226 75.44C274.778 76.496 274.146 77.376 273.33 78.08C272.514 78.768 271.538 79.288 270.402 79.64C269.266 79.976 268.018 80.144 266.658 80.144C265.986 80.144 265.242 80.112 264.426 80.048C263.626 80 262.898 79.896 262.242 79.736V63.608C262.898 63.448 263.626 63.344 264.426 63.296C265.242 63.232 265.986 63.2 266.658 63.2C268.018 63.2 269.266 63.376 270.402 63.728C271.538 64.064 272.514 64.584 273.33 65.288C274.146 65.976 274.778 66.856 275.226 67.928C275.674 68.984 275.898 70.232 275.898 71.672ZM266.85 78.104C269.058 78.104 270.706 77.544 271.794 76.424C272.882 75.288 273.426 73.704 273.426 71.672C273.426 69.64 272.882 68.064 271.794 66.944C270.706 65.808 269.058 65.24 266.85 65.24C266.194 65.24 265.682 65.248 265.314 65.264C264.962 65.28 264.714 65.296 264.57 65.312V78.032C264.714 78.048 264.962 78.064 265.314 78.08C265.682 78.096 266.194 78.104 266.85 78.104ZM282.111 73.784C282.111 72.68 282.271 71.72 282.591 70.904C282.911 70.072 283.335 69.384 283.863 68.84C284.391 68.296 284.999 67.888 285.687 67.616C286.375 67.344 287.079 67.208 287.799 67.208C289.479 67.208 290.767 67.736 291.663 68.792C292.559 69.832 293.007 71.424 293.007 73.568C293.007 73.664 293.007 73.792 293.007 73.952C293.007 74.096 292.999 74.232 292.983 74.36H284.439C284.535 75.656 284.911 76.64 285.567 77.312C286.223 77.984 287.247 78.32 288.639 78.32C289.423 78.32 290.079 78.256 290.607 78.128C291.151 77.984 291.559 77.848 291.831 77.72L292.143 79.592C291.871 79.736 291.391 79.888 290.703 80.048C290.031 80.208 289.263 80.288 288.399 80.288C287.311 80.288 286.367 80.128 285.567 79.808C284.783 79.472 284.135 79.016 283.623 78.44C283.111 77.864 282.727 77.184 282.471 76.4C282.231 75.6 282.111 74.728 282.111 73.784ZM290.679 72.56C290.695 71.552 290.439 70.728 289.911 70.088C289.399 69.432 288.687 69.104 287.775 69.104C287.263 69.104 286.807 69.208 286.407 69.416C286.023 69.608 285.695 69.864 285.423 70.184C285.151 70.504 284.935 70.872 284.775 71.288C284.631 71.704 284.535 72.128 284.487 72.56H290.679ZM309.558 67.52C308.934 69.856 308.198 72.096 307.35 74.24C306.518 76.384 305.71 78.304 304.926 80H302.91C302.126 78.304 301.31 76.384 300.462 74.24C299.63 72.096 298.902 69.856 298.278 67.52H300.678C300.87 68.304 301.094 69.144 301.35 70.04C301.622 70.92 301.902 71.8 302.19 72.68C302.494 73.544 302.798 74.384 303.102 75.2C303.406 76.016 303.694 76.744 303.966 77.384C304.238 76.744 304.526 76.016 304.83 75.2C305.134 74.384 305.43 73.544 305.718 72.68C306.022 71.8 306.302 70.92 306.558 70.04C306.83 69.144 307.062 68.304 307.254 67.52H309.558ZM314.436 73.784C314.436 72.68 314.596 71.72 314.916 70.904C315.236 70.072 315.66 69.384 316.188 68.84C316.716 68.296 317.324 67.888 318.012 67.616C318.7 67.344 319.404 67.208 320.124 67.208C321.804 67.208 323.092 67.736 323.988 68.792C324.884 69.832 325.332 71.424 325.332 73.568C325.332 73.664 325.332 73.792 325.332 73.952C325.332 74.096 325.324 74.232 325.308 74.36H316.764C316.86 75.656 317.236 76.64 317.892 77.312C318.548 77.984 319.572 78.32 320.964 78.32C321.748 78.32 322.404 78.256 322.932 78.128C323.476 77.984 323.884 77.848 324.156 77.72L324.468 79.592C324.196 79.736 323.716 79.888 323.028 80.048C322.356 80.208 321.588 80.288 320.724 80.288C319.636 80.288 318.692 80.128 317.892 79.808C317.108 79.472 316.46 79.016 315.948 78.44C315.436 77.864 315.052 77.184 314.796 76.4C314.556 75.6 314.436 74.728 314.436 73.784ZM323.004 72.56C323.02 71.552 322.764 70.728 322.236 70.088C321.724 69.432 321.012 69.104 320.1 69.104C319.588 69.104 319.132 69.208 318.732 69.416C318.348 69.608 318.02 69.864 317.748 70.184C317.476 70.504 317.26 70.872 317.1 71.288C316.956 71.704 316.86 72.128 316.812 72.56H323.004ZM335.883 80.24C334.507 80.208 333.531 79.912 332.955 79.352C332.379 78.792 332.091 77.92 332.091 76.736V61.76L334.323 61.376V76.376C334.323 76.744 334.355 77.048 334.419 77.288C334.483 77.528 334.587 77.72 334.731 77.864C334.875 78.008 335.067 78.12 335.307 78.2C335.547 78.264 335.843 78.32 336.195 78.368L335.883 80.24ZM353.317 73.76C353.317 74.752 353.173 75.648 352.885 76.448C352.597 77.248 352.189 77.936 351.661 78.512C351.149 79.088 350.533 79.536 349.813 79.856C349.093 80.16 348.309 80.312 347.461 80.312C346.613 80.312 345.829 80.16 345.109 79.856C344.389 79.536 343.765 79.088 343.237 78.512C342.725 77.936 342.325 77.248 342.037 76.448C341.749 75.648 341.605 74.752 341.605 73.76C341.605 72.784 341.749 71.896 342.037 71.096C342.325 70.28 342.725 69.584 343.237 69.008C343.765 68.432 344.389 67.992 345.109 67.688C345.829 67.368 346.613 67.208 347.461 67.208C348.309 67.208 349.093 67.368 349.813 67.688C350.533 67.992 351.149 68.432 351.661 69.008C352.189 69.584 352.597 70.28 352.885 71.096C353.173 71.896 353.317 72.784 353.317 73.76ZM350.989 73.76C350.989 72.352 350.669 71.24 350.029 70.424C349.405 69.592 348.549 69.176 347.461 69.176C346.373 69.176 345.509 69.592 344.869 70.424C344.245 71.24 343.933 72.352 343.933 73.76C343.933 75.168 344.245 76.288 344.869 77.12C345.509 77.936 346.373 78.344 347.461 78.344C348.549 78.344 349.405 77.936 350.029 77.12C350.669 76.288 350.989 75.168 350.989 73.76ZM368.721 73.784C368.721 72.328 368.361 71.208 367.641 70.424C366.921 69.64 365.961 69.248 364.761 69.248C364.089 69.248 363.561 69.272 363.177 69.32C362.809 69.368 362.513 69.424 362.289 69.488V77.36C362.561 77.584 362.953 77.8 363.465 78.008C363.977 78.216 364.537 78.32 365.145 78.32C365.785 78.32 366.329 78.208 366.777 77.984C367.241 77.744 367.617 77.424 367.905 77.024C368.193 76.608 368.401 76.128 368.529 75.584C368.657 75.024 368.721 74.424 368.721 73.784ZM371.049 73.784C371.049 74.728 370.921 75.6 370.665 76.4C370.425 77.2 370.065 77.888 369.585 78.464C369.105 79.04 368.513 79.488 367.809 79.808C367.121 80.128 366.329 80.288 365.433 80.288C364.713 80.288 364.073 80.192 363.513 80C362.969 79.808 362.561 79.624 362.289 79.448V84.44H360.057V67.904C360.585 67.776 361.241 67.64 362.025 67.496C362.825 67.336 363.745 67.256 364.785 67.256C365.745 67.256 366.609 67.408 367.377 67.712C368.145 68.016 368.801 68.448 369.345 69.008C369.889 69.568 370.305 70.256 370.593 71.072C370.897 71.872 371.049 72.776 371.049 73.784ZM377.094 73.784C377.094 72.68 377.254 71.72 377.574 70.904C377.894 70.072 378.318 69.384 378.846 68.84C379.374 68.296 379.982 67.888 380.67 67.616C381.358 67.344 382.062 67.208 382.782 67.208C384.462 67.208 385.75 67.736 386.646 68.792C387.542 69.832 387.99 71.424 387.99 73.568C387.99 73.664 387.99 73.792 387.99 73.952C387.99 74.096 387.982 74.232 387.966 74.36H379.422C379.518 75.656 379.894 76.64 380.55 77.312C381.206 77.984 382.23 78.32 383.622 78.32C384.406 78.32 385.062 78.256 385.59 78.128C386.134 77.984 386.542 77.848 386.814 77.72L387.126 79.592C386.854 79.736 386.374 79.888 385.686 80.048C385.014 80.208 384.246 80.288 383.382 80.288C382.294 80.288 381.35 80.128 380.55 79.808C379.766 79.472 379.118 79.016 378.606 78.44C378.094 77.864 377.71 77.184 377.454 76.4C377.214 75.6 377.094 74.728 377.094 73.784ZM385.662 72.56C385.678 71.552 385.422 70.728 384.894 70.088C384.382 69.432 383.67 69.104 382.758 69.104C382.246 69.104 381.79 69.208 381.39 69.416C381.006 69.608 380.678 69.864 380.406 70.184C380.134 70.504 379.918 70.872 379.758 71.288C379.614 71.704 379.518 72.128 379.47 72.56H385.662ZM399.405 67.256C399.597 67.256 399.813 67.272 400.053 67.304C400.309 67.32 400.557 67.352 400.797 67.4C401.037 67.432 401.253 67.472 401.445 67.52C401.653 67.552 401.805 67.584 401.901 67.616L401.517 69.56C401.341 69.496 401.045 69.424 400.629 69.344C400.229 69.248 399.709 69.2 399.069 69.2C398.653 69.2 398.237 69.248 397.821 69.344C397.421 69.424 397.157 69.48 397.029 69.512V80H394.797V68.048C395.325 67.856 395.981 67.68 396.765 67.52C397.549 67.344 398.429 67.256 399.405 67.256Z" fill="#179FBD"/>
<path d="M110.256 45.504C106.2 45.504 103.104 44.376 100.968 42.12C98.856 39.864 97.8 36.66 97.8 32.508C97.8 30.444 98.124 28.608 98.772 27C99.42 25.368 100.308 24 101.436 22.896C102.564 21.768 103.908 20.916 105.468 20.34C107.028 19.764 108.72 19.476 110.544 19.476C111.6 19.476 112.56 19.56 113.424 19.728C114.288 19.872 115.044 20.052 115.692 20.268C116.34 20.46 116.88 20.664 117.312 20.88C117.744 21.096 118.056 21.264 118.248 21.384L116.628 25.92C115.86 25.512 114.96 25.164 113.928 24.876C112.92 24.588 111.768 24.444 110.472 24.444C109.608 24.444 108.756 24.588 107.916 24.876C107.1 25.164 106.368 25.632 105.72 26.28C105.096 26.904 104.592 27.72 104.208 28.728C103.824 29.736 103.632 30.96 103.632 32.4C103.632 33.552 103.752 34.632 103.992 35.64C104.256 36.624 104.664 37.476 105.216 38.196C105.792 38.916 106.536 39.492 107.448 39.924C108.36 40.332 109.464 40.536 110.76 40.536C111.576 40.536 112.308 40.488 112.956 40.392C113.604 40.296 114.18 40.188 114.684 40.068C115.188 39.924 115.632 39.768 116.016 39.6C116.4 39.432 116.748 39.276 117.06 39.132L118.608 43.632C117.816 44.112 116.7 44.544 115.26 44.928C113.82 45.312 112.152 45.504 110.256 45.504ZM134.851 41.256C135.379 41.256 135.883 41.244 136.363 41.22C136.843 41.196 137.227 41.16 137.515 41.112V37.044C137.299 36.996 136.975 36.948 136.543 36.9C136.111 36.852 135.715 36.828 135.355 36.828C134.851 36.828 134.371 36.864 133.915 36.936C133.483 36.984 133.099 37.092 132.763 37.26C132.427 37.428 132.163 37.656 131.971 37.944C131.779 38.232 131.683 38.592 131.683 39.024C131.683 39.864 131.959 40.452 132.511 40.788C133.087 41.1 133.867 41.256 134.851 41.256ZM134.419 25.56C136.003 25.56 137.323 25.74 138.379 26.1C139.435 26.46 140.275 26.976 140.899 27.648C141.547 28.32 142.003 29.136 142.267 30.096C142.531 31.056 142.663 32.124 142.663 33.3V44.46C141.895 44.628 140.827 44.82 139.459 45.036C138.091 45.276 136.435 45.396 134.491 45.396C133.267 45.396 132.151 45.288 131.143 45.072C130.159 44.856 129.307 44.508 128.587 44.028C127.867 43.524 127.315 42.876 126.931 42.084C126.547 41.292 126.355 40.32 126.355 39.168C126.355 38.064 126.571 37.128 127.003 36.36C127.459 35.592 128.059 34.98 128.803 34.524C129.547 34.068 130.399 33.744 131.359 33.552C132.319 33.336 133.315 33.228 134.347 33.228C135.043 33.228 135.655 33.264 136.183 33.336C136.735 33.384 137.179 33.456 137.515 33.552V33.048C137.515 32.136 137.239 31.404 136.687 30.852C136.135 30.3 135.175 30.024 133.807 30.024C132.895 30.024 131.995 30.096 131.107 30.24C130.219 30.36 129.451 30.54 128.803 30.78L128.119 26.46C128.431 26.364 128.815 26.268 129.271 26.172C129.751 26.052 130.267 25.956 130.819 25.884C131.371 25.788 131.947 25.716 132.547 25.668C133.171 25.596 133.795 25.56 134.419 25.56ZM164.326 30.816C163.846 30.696 163.282 30.576 162.634 30.456C161.986 30.312 161.29 30.24 160.546 30.24C160.21 30.24 159.802 30.276 159.322 30.348C158.866 30.396 158.518 30.456 158.278 30.528V45H152.914V27.072C153.874 26.736 155.002 26.424 156.298 26.136C157.618 25.824 159.082 25.668 160.69 25.668C160.978 25.668 161.326 25.692 161.734 25.74C162.142 25.764 162.55 25.812 162.958 25.884C163.366 25.932 163.774 26.004 164.182 26.1C164.59 26.172 164.938 26.268 165.226 26.388L164.326 30.816ZM181.061 45.36C179.501 45.336 178.229 45.168 177.245 44.856C176.285 44.544 175.517 44.112 174.941 43.56C174.389 42.984 174.005 42.3 173.789 41.508C173.597 40.692 173.501 39.78 173.501 38.772V17.928L178.865 17.064V37.692C178.865 38.172 178.901 38.604 178.973 38.988C179.045 39.372 179.177 39.696 179.369 39.96C179.585 40.224 179.885 40.44 180.269 40.608C180.653 40.776 181.169 40.884 181.817 40.932L181.061 45.36ZM208.004 35.496C208.004 36.984 207.788 38.352 207.356 39.6C206.924 40.824 206.3 41.88 205.484 42.768C204.668 43.632 203.684 44.304 202.532 44.784C201.404 45.264 200.132 45.504 198.716 45.504C197.324 45.504 196.052 45.264 194.9 44.784C193.772 44.304 192.8 43.632 191.984 42.768C191.168 41.88 190.532 40.824 190.076 39.6C189.62 38.352 189.392 36.984 189.392 35.496C189.392 34.008 189.62 32.652 190.076 31.428C190.556 30.204 191.204 29.16 192.02 28.296C192.86 27.432 193.844 26.76 194.972 26.28C196.124 25.8 197.372 25.56 198.716 25.56C200.084 25.56 201.332 25.8 202.46 26.28C203.612 26.76 204.596 27.432 205.412 28.296C206.228 29.16 206.864 30.204 207.32 31.428C207.776 32.652 208.004 34.008 208.004 35.496ZM202.532 35.496C202.532 33.84 202.196 32.544 201.524 31.608C200.876 30.648 199.94 30.168 198.716 30.168C197.492 30.168 196.544 30.648 195.872 31.608C195.2 32.544 194.864 33.84 194.864 35.496C194.864 37.152 195.2 38.472 195.872 39.456C196.544 40.416 197.492 40.896 198.716 40.896C199.94 40.896 200.876 40.416 201.524 39.456C202.196 38.472 202.532 37.152 202.532 35.496ZM222.995 41.148C223.979 41.148 224.675 41.052 225.083 40.86C225.491 40.668 225.695 40.296 225.695 39.744C225.695 39.312 225.431 38.94 224.903 38.628C224.375 38.292 223.571 37.92 222.491 37.512C221.651 37.2 220.883 36.876 220.187 36.54C219.515 36.204 218.939 35.808 218.459 35.352C217.979 34.872 217.607 34.308 217.343 33.66C217.079 33.012 216.947 32.232 216.947 31.32C216.947 29.544 217.607 28.14 218.927 27.108C220.247 26.076 222.059 25.56 224.363 25.56C225.515 25.56 226.619 25.668 227.675 25.884C228.731 26.076 229.571 26.292 230.195 26.532L229.259 30.708C228.635 30.492 227.951 30.3 227.207 30.132C226.487 29.964 225.671 29.88 224.759 29.88C223.079 29.88 222.239 30.348 222.239 31.284C222.239 31.5 222.275 31.692 222.347 31.86C222.419 32.028 222.563 32.196 222.779 32.364C222.995 32.508 223.283 32.676 223.643 32.868C224.027 33.036 224.507 33.228 225.083 33.444C226.259 33.876 227.231 34.308 227.999 34.74C228.767 35.148 229.367 35.604 229.799 36.108C230.255 36.588 230.567 37.128 230.735 37.728C230.927 38.328 231.023 39.024 231.023 39.816C231.023 41.688 230.315 43.104 228.899 44.064C227.507 45.024 225.527 45.504 222.959 45.504C221.279 45.504 219.875 45.36 218.747 45.072C217.643 44.784 216.875 44.544 216.443 44.352L217.343 39.996C218.255 40.356 219.191 40.644 220.151 40.86C221.111 41.052 222.059 41.148 222.995 41.148Z" fill="#EAEAEA"/>
</svg>
