<svg width="400" height="461" viewBox="0 0 400 461" fill="none" xmlns="http://www.w3.org/2000/svg">
<path d="M91 424H127C136 424 140.5 419.5 140.5 410.5V113.5C140.5 108.833 139.333 105.5 137 103.5C135 101.167 131.667 100 127 100H91V84H258C281.333 84 302 88 320 96C338.333 103.667 352.5 114.667 362.5 129C372.833 143 378 159 378 177C378 195.333 372.833 211.667 362.5 226C352.5 240.333 338.333 251.667 320 260C302 268 281.333 272 258 272H186.5V410.5C186.5 415.167 187.5 418.667 189.5 421C191.5 423 195 424 200 424H244V440H91V424ZM264.5 256C282.5 256 297 248.333 308 233C319.333 217.333 325 198.667 325 177C325 155.333 319.5 137.167 308.5 122.5C297.5 107.5 282.833 100 264.5 100H200C195.333 100 191.833 101.167 189.5 103.5C187.5 105.5 186.5 108.833 186.5 113.5V256H264.5Z" fill="#EAEAEA"/>
<path d="M91 424V422H89V424H91ZM137 103.5L135.481 104.802L135.582 104.918L135.698 105.018L137 103.5ZM91 100H89V102H91V100ZM91 84V82H89V84H91ZM320 96L319.188 97.8276L319.208 97.8366L319.228 97.8451L320 96ZM362.5 129L360.86 130.144L360.875 130.166L360.891 130.188L362.5 129ZM362.5 226L360.878 224.83L360.869 224.843L360.86 224.856L362.5 226ZM320 260L320.812 261.828L320.82 261.824L320.828 261.821L320 260ZM186.5 272V270H184.5V272H186.5ZM189.5 421L187.981 422.302L188.031 422.36L188.086 422.414L189.5 421ZM244 424H246V422H244V424ZM244 440V442H246V440H244ZM91 440H89V442H91V440ZM308 233L306.38 231.828L306.375 231.834L308 233ZM308.5 122.5L306.887 123.683L306.894 123.691L306.9 123.7L308.5 122.5ZM189.5 103.5L188.086 102.086L188.086 102.086L189.5 103.5ZM186.5 256H184.5V258H186.5V256ZM91 426H127V422H91V426ZM127 426C131.808 426 135.782 424.797 138.539 422.039C141.297 419.282 142.5 415.308 142.5 410.5H138.5C138.5 414.692 137.453 417.468 135.711 419.211C133.968 420.953 131.192 422 127 422V426ZM142.5 410.5V113.5H138.5V410.5H142.5ZM142.5 113.5C142.5 108.555 141.267 104.523 138.302 101.981L135.698 105.018C137.4 106.477 138.5 109.112 138.5 113.5H142.5ZM138.519 102.198C135.977 99.2333 131.945 98 127 98V102C131.388 102 134.023 103.1 135.481 104.802L138.519 102.198ZM127 98H91V102H127V98ZM93 100V84H89V100H93ZM91 86H258V82H91V86ZM258 86C281.104 86 301.486 89.9603 319.188 97.8276L320.812 94.1724C302.514 86.0397 281.562 82 258 82V86ZM319.228 97.8451C337.261 105.386 351.106 116.163 360.86 130.144L364.14 127.856C353.894 113.17 339.406 101.947 320.772 94.1548L319.228 97.8451ZM360.891 130.188C370.961 143.831 376 159.412 376 177H380C380 158.588 374.706 142.169 364.109 127.812L360.891 130.188ZM376 177C376 194.93 370.956 210.851 360.878 224.83L364.122 227.17C374.711 212.482 380 195.736 380 177H376ZM360.86 224.856C351.095 238.852 337.23 249.971 319.172 258.179L320.828 261.821C339.437 253.362 353.905 241.814 364.14 227.144L360.86 224.856ZM319.188 258.172C301.486 266.04 281.104 270 258 270V274C281.562 274 302.514 269.96 320.812 261.828L319.188 258.172ZM258 270H186.5V274H258V270ZM184.5 272V410.5H188.5V272H184.5ZM184.5 410.5C184.5 415.406 185.545 419.459 187.981 422.302L191.019 419.698C189.455 417.875 188.5 414.927 188.5 410.5H184.5ZM188.086 422.414C190.662 424.99 194.845 426 200 426V422C195.155 422 192.338 421.01 190.914 419.586L188.086 422.414ZM200 426H244V422H200V426ZM242 424V440H246V424H242ZM244 438H91V442H244V438ZM93 440V424H89V440H93ZM264.5 258C283.18 258 298.271 249.993 309.625 234.166L306.375 231.834C295.729 246.674 281.82 254 264.5 254V258ZM309.62 234.172C321.23 218.124 327 199.035 327 177H323C323 198.299 317.437 216.543 306.38 231.828L309.62 234.172ZM327 177C327 154.982 321.405 136.373 310.1 121.3L306.9 123.7C317.595 137.961 323 155.685 323 177H327ZM310.113 121.317C298.743 105.812 283.481 98 264.5 98V102C282.185 102 296.257 109.188 306.887 123.683L310.113 121.317ZM264.5 98H200V102H264.5V98ZM200 98C195.025 98 190.926 99.2451 188.086 102.086L190.914 104.914C192.74 103.088 195.642 102 200 102V98ZM188.086 102.086C185.53 104.642 184.5 108.63 184.5 113.5H188.5C188.5 109.036 189.47 106.358 190.914 104.914L188.086 102.086ZM184.5 113.5V256H188.5V113.5H184.5ZM186.5 258H264.5V254H186.5V258Z" fill="#252525"/>
<path d="M142.176 419.06C118.411 411.971 100.025 398.974 87.02 380.068C74.0147 361.162 66.3557 339.259 64.043 314.359C62.0621 289.28 64.7684 264.346 72.1619 239.559C79.8603 213.749 91.255 191.407 106.346 172.533C121.437 153.66 138.899 140.363 158.733 132.643C178.644 124.668 199.331 123.882 220.797 130.284C232.041 133.638 241.884 139.357 250.325 147.44C258.767 155.524 265.305 163.457 269.941 171.24C274.397 178.691 277.647 182.722 279.692 183.331C281.736 183.941 283.332 183.722 284.48 182.673C285.883 181.7 287.515 179.96 289.375 177.454L303.061 158.161L312.644 161.019L278.734 280.303L268.001 277.102C269.62 251.149 268.397 228.661 264.331 209.639C260.342 190.361 254.162 175.16 245.792 164.037C237.678 152.99 228.382 145.904 217.905 142.779C193.629 135.538 173.102 141.381 156.325 160.309C139.804 179.313 125.293 209.769 112.793 251.678C99.9115 294.865 95.2794 329.52 98.8967 355.644C102.59 381.512 118.236 398.562 145.835 406.794C170.367 414.111 191.727 410.604 209.916 396.271C228.436 381.76 242.478 361.738 252.042 336.206L265.841 340.322C260.577 355.17 252.733 369.806 242.31 384.228C232.141 398.726 218.532 409.833 201.482 417.548C184.432 425.264 164.664 425.767 142.176 419.06Z" fill="#34E3DA"/>
<path d="M87.02 380.068L88.6677 378.934L88.6677 378.934L87.02 380.068ZM64.043 314.359L62.0492 314.516L62.0503 314.53L62.0516 314.544L64.043 314.359ZM106.346 172.533L104.784 171.284L104.784 171.284L106.346 172.533ZM158.733 132.643L159.459 134.507L159.468 134.503L159.477 134.5L158.733 132.643ZM269.941 171.24L268.223 172.263L268.224 172.266L269.941 171.24ZM284.48 182.673L283.34 181.029L283.23 181.106L283.13 181.196L284.48 182.673ZM289.375 177.454L290.981 178.646L290.994 178.629L291.007 178.611L289.375 177.454ZM303.061 158.161L303.633 156.245L302.259 155.835L301.43 157.004L303.061 158.161ZM312.644 161.019L314.568 161.566L315.107 159.667L313.215 159.103L312.644 161.019ZM278.734 280.303L278.162 282.22L280.104 282.799L280.658 280.85L278.734 280.303ZM268.001 277.102L266.005 276.978L265.906 278.564L267.43 279.019L268.001 277.102ZM264.331 209.639L262.373 210.044L262.376 210.057L264.331 209.639ZM245.792 164.037L244.18 165.221L244.187 165.23L244.194 165.24L245.792 164.037ZM156.325 160.309L154.829 158.982L154.822 158.99L154.816 158.997L156.325 160.309ZM98.8967 355.644L96.9155 355.918L96.9167 355.926L98.8967 355.644ZM209.916 396.271L208.682 394.697L208.678 394.7L209.916 396.271ZM252.042 336.206L252.613 334.29L250.824 333.756L250.169 335.505L252.042 336.206ZM265.841 340.322L267.726 340.99L268.429 339.007L266.413 338.406L265.841 340.322ZM242.31 384.228L240.689 383.056L240.68 383.068L240.672 383.08L242.31 384.228ZM201.482 417.548L202.307 419.371L202.307 419.371L201.482 417.548ZM142.748 417.143C119.382 410.174 101.393 397.433 88.6677 378.934L85.3722 381.201C98.6578 400.515 117.439 413.769 141.604 420.976L142.748 417.143ZM88.6677 378.934C75.8733 360.335 68.3184 338.765 66.0344 314.174L62.0516 314.544C64.3929 339.753 72.156 361.989 85.3722 381.201L88.6677 378.934ZM66.0368 314.201C64.0758 289.375 66.7534 264.689 74.0784 240.131L70.2453 238.987C62.7834 264.004 60.0483 289.185 62.0492 314.516L66.0368 314.201ZM74.0784 240.131C81.7117 214.539 92.995 192.434 107.908 173.782L104.784 171.284C89.5149 190.381 78.0088 212.959 70.2453 238.987L74.0784 240.131ZM107.908 173.782C122.809 155.146 139.996 142.082 159.459 134.507L158.008 130.779C137.803 138.643 120.065 152.173 104.784 171.284L107.908 173.782ZM159.477 134.5C178.949 126.7 199.172 125.921 220.225 132.201L221.369 128.368C199.491 121.842 178.339 122.636 157.99 130.787L159.477 134.5ZM220.225 132.201C231.166 135.464 240.73 141.022 248.942 148.885L251.708 145.996C243.037 137.692 232.915 131.812 221.369 128.368L220.225 132.201ZM248.942 148.885C257.289 156.878 263.702 164.672 268.223 172.263L271.659 170.217C266.909 162.241 260.245 154.17 251.708 145.996L248.942 148.885ZM268.224 172.266C270.473 176.026 272.454 178.987 274.164 181.107C275.018 182.166 275.836 183.055 276.614 183.737C277.369 184.398 278.21 184.977 279.12 185.248L280.263 181.415C280.15 181.381 279.819 181.227 279.25 180.729C278.705 180.251 278.048 179.551 277.277 178.596C275.737 176.685 273.865 173.905 271.657 170.213L268.224 172.266ZM279.12 185.248C281.557 185.975 283.978 185.84 285.829 184.149L283.13 181.196C282.686 181.603 281.914 181.907 280.263 181.415L279.12 185.248ZM285.619 184.316C287.293 183.156 289.08 181.208 290.981 178.646L287.77 176.262C285.95 178.713 284.473 180.243 283.34 181.029L285.619 184.316ZM291.007 178.611L304.692 159.318L301.43 157.004L287.744 176.297L291.007 178.611ZM302.489 160.078L312.072 162.936L313.215 159.103L303.633 156.245L302.489 160.078ZM310.72 160.472L276.81 279.757L280.658 280.85L314.568 161.566L310.72 160.472ZM279.306 278.387L268.573 275.186L267.43 279.019L278.162 282.22L279.306 278.387ZM269.997 277.227C271.624 251.149 270.401 228.469 266.287 209.221L262.376 210.057C266.393 228.853 267.617 251.149 266.005 276.978L269.997 277.227ZM266.29 209.233C262.264 189.778 255.995 174.27 247.39 162.834L244.194 165.24C252.329 176.05 258.42 190.943 262.373 210.044L266.29 209.233ZM247.404 162.853C239.098 151.546 229.467 144.141 218.477 140.863L217.333 144.696C227.297 147.668 236.257 154.435 244.18 165.221L247.404 162.853ZM218.477 140.863C206.043 137.154 194.448 136.763 183.755 139.807C173.062 142.851 163.422 149.287 154.829 158.982L157.822 161.636C166.005 152.404 175.017 146.454 184.85 143.654C194.684 140.855 205.491 141.163 217.333 144.696L218.477 140.863ZM154.816 158.997C138.018 178.319 123.407 209.097 110.876 251.106L114.71 252.25C127.18 210.442 141.59 180.307 157.835 161.621L154.816 158.997ZM110.876 251.106C97.9632 294.399 93.2406 329.377 96.9156 355.918L100.878 355.369C97.3182 329.662 101.86 295.33 114.71 252.25L110.876 251.106ZM96.9167 355.926C98.8129 369.206 103.797 380.325 111.928 389.185C120.048 398.034 131.202 404.516 145.263 408.71L146.406 404.877C132.869 400.84 122.401 394.681 114.875 386.48C107.359 378.29 102.674 367.949 100.877 355.361L96.9167 355.926ZM145.263 408.71C170.342 416.191 192.394 412.624 211.154 397.842L208.678 394.7C191.06 408.583 170.391 412.031 146.406 404.877L145.263 408.71ZM211.149 397.846C230.002 383.073 244.243 362.728 253.915 336.908L250.169 335.505C240.713 360.748 226.87 380.446 208.682 394.697L211.149 397.846ZM251.47 338.123L265.269 342.239L266.413 338.406L252.613 334.29L251.47 338.123ZM263.956 339.654C258.763 354.301 251.015 368.769 240.689 383.056L243.93 385.4C254.452 370.843 262.391 356.04 267.726 340.99L263.956 339.654ZM240.672 383.08C230.721 397.268 217.4 408.15 200.658 415.726L202.307 419.371C219.664 411.516 233.561 400.185 243.947 385.376L240.672 383.08ZM200.658 415.726C184.15 423.196 164.895 423.749 142.748 417.143L141.604 420.976C164.432 427.785 184.715 427.331 202.307 419.371L200.658 415.726Z" fill="#252525"/>
<path d="M139.5 187V188H140.5H186.5H187.5V187V125V124H186.5H140.5H139.5V125V138V187Z" stroke="#252525" stroke-width="2"/>
<path d="M140.5 189V122H186.5V189H140.5Z" fill="#EAEAEA"/>
</svg>
