<svg width="82" height="105" viewBox="0 0 82 105" fill="none" xmlns="http://www.w3.org/2000/svg">
<path d="M21.257 71.5604L32.4851 52.6179H71.7702L60.8257 71.5604H21.257Z" fill="#2EC2CB"/>
<path d="M49.8811 52.618L59.7733 35.7803H81.4519L71.7702 52.618H49.8811Z" fill="#179FBD"/>
<path d="M59.6291 35.7802L49.6705 18.9425H71.7701L81.4518 35.7802H59.6291Z" fill="#2EC2CB"/>
<path d="M31.991 19.3634L21.257 0H60.8257L71.7702 18.9425L31.991 19.3634Z" fill="#179FBD"/>
<path d="M5.36206 104.449L21.2564 71.5605H40.8303L30.0962 90.082L5.36206 104.449Z" fill="#179FBD"/>
<path d="M29.6019 19.9949L23.4146 30.9306C21.6446 34.0589 21.6897 37.8964 23.5326 40.9823L29.6019 51.1447L18.4468 70.5082L1.30798 40.3799C-0.459232 37.2734 -0.434122 33.4598 1.37382 30.3768L18.4468 1.26288L29.6019 19.9949Z" fill="#EAEAEA"/>
</svg>
