<svg width="93" height="93" viewBox="0 0 93 93" fill="none" xmlns="http://www.w3.org/2000/svg">
<g clip-path="url(#clip0_893_422)">
<path d="M77.501 0H15.502C11.3954 0.0130284 7.4607 1.65014 4.55688 4.55395C1.65307 7.45777 0.0159581 11.3924 0.00292969 15.499V77.4981C0.00292969 86.0192 6.98084 92.9971 15.502 92.9971H77.501C86.0221 92.9971 93 86.0192 93 77.4981V15.499C93 6.97791 86.0221 0 77.501 0ZM69.0235 65.3151C68.2493 67.1819 67.0217 68.8261 65.4517 70.0988C63.8155 71.4153 61.7578 72.5051 59.2149 73.2782C56.6864 74.0658 53.6756 74.4581 50.1793 74.4581H25.2641V20.2072H51.6179C56.4917 20.2072 60.3977 21.297 63.3185 23.5377C66.2712 25.7784 67.7244 29.1381 67.7244 33.6486C67.7244 36.3892 67.0588 38.72 65.7249 40.6555C64.3909 42.5911 62.4699 44.0907 59.9879 45.137V45.3201C63.304 46.0176 65.8615 47.5898 67.5413 50.0282C69.2211 52.4665 70.0988 55.553 70.0988 59.2759C70.101 61.3055 69.705 63.3158 68.9334 65.193L69.0235 65.2976V65.3151ZM58.2616 51.9492C58.2606 51.9482 58.2595 51.9473 58.2585 51.9463C56.6834 50.4951 54.4438 49.7841 51.5714 49.7841H34.814V66.7072H51.615C54.4748 66.7072 56.73 65.9661 58.3197 64.4664C59.9095 62.9668 60.7116 60.8336 60.7116 58.1076C60.6825 55.428 59.9095 53.3558 58.3197 51.9463H58.2585H58.2442L58.2616 51.9492ZM55.9453 41.0043C57.474 39.7023 58.2296 37.8394 58.2296 35.4039C58.2296 32.6779 57.5496 30.7423 56.172 29.6379C54.809 28.5336 52.8415 27.9581 50.2549 27.9581H34.7559V42.9282H50.2549C52.5101 42.9282 54.4486 42.2627 55.9308 41.0072L55.9453 41.0043Z" fill="#179FBD"/>
<path fill-rule="evenodd" clip-rule="evenodd" d="M69.0235 65.3151C68.2493 67.1819 67.0217 68.8261 65.4517 70.0988C63.8155 71.4153 61.7578 72.5051 59.2149 73.2782C56.6864 74.0658 53.6756 74.4581 50.1793 74.4581H25.2641V20.2072H51.6179C56.4917 20.2072 60.3977 21.297 63.3185 23.5377C66.2712 25.7784 67.7244 29.1381 67.7244 33.6486C67.7244 36.3892 67.0588 38.72 65.7249 40.6555C64.3909 42.5911 62.4699 44.0907 59.9879 45.137V45.3201C63.304 46.0176 65.8615 47.5898 67.5413 50.0282C69.2211 52.4665 70.0988 55.553 70.0988 59.2759C70.101 61.3055 69.705 63.3158 68.9334 65.193L69.0235 65.2976V65.3151ZM51.5714 49.7841C54.4438 49.7841 56.6834 50.4951 58.2585 51.9463H58.3197C59.9095 53.3558 60.6825 55.428 60.7116 58.1076C60.7116 60.8336 59.9095 62.9668 58.3197 64.4664C56.73 65.9661 54.4748 66.7072 51.615 66.7072H34.814V49.7841H51.5714ZM58.2296 35.4039C58.2296 37.8394 57.474 39.7023 55.9453 41.0043L55.9308 41.0072C54.4486 42.2627 52.5101 42.9282 50.2549 42.9282H34.7559V27.9581H50.2549C52.8415 27.9581 54.809 28.5336 56.172 29.6379C57.5496 30.7423 58.2296 32.6779 58.2296 35.4039Z" fill="#8513FB"/>
</g>
<defs>
<clipPath id="clip0_893_422">
<rect width="93" height="93" fill="white"/>
</clipPath>
</defs>
</svg>
