<svg width="93" height="93" viewBox="0 0 93 93" fill="none" xmlns="http://www.w3.org/2000/svg">
<g clip-path="url(#clip0_891_381)">
<path d="M71.2031 0H21.7969C9.75879 0 0 9.75879 0 21.7969V71.2031C0 83.2412 9.75879 93 21.7969 93H71.2031C83.2412 93 93 83.2412 93 71.2031V21.7969C93 9.75879 83.2412 0 71.2031 0Z" fill="#179FBD"/>
<path d="M75.0935 33.146C74.9463 32.9898 74.7898 32.8336 74.6336 32.6861C74.477 32.539 74.3299 32.3737 74.1736 32.2266C74.0174 32.0791 73.8703 31.9138 73.7137 31.7667C73.5575 31.6195 73.4104 31.4539 73.2538 31.3067C73.0976 31.1596 72.9505 30.9943 72.7943 30.8468C72.6377 30.6997 72.4906 30.5344 72.3344 30.3869C72.1778 30.2398 72.0307 30.0745 71.8744 29.927C76.4363 34.4104 79.0497 40.5095 79.1491 46.905C79.1491 62.1442 63.6799 74.5419 44.6603 74.5419C34.0104 74.5419 24.4822 70.6516 18.1455 64.5539L18.6054 65.0138L19.0653 65.4737L19.5249 65.9333L19.9848 66.3932L20.4447 66.8531L20.9046 67.313L21.3645 67.7729C27.6922 74.1278 37.4317 78.2205 48.3393 78.2205C67.3585 78.2205 82.8281 65.8232 82.8281 50.6297C82.8281 44.1364 80.0323 37.9839 75.0935 33.146Z" fill="black"/>
<path d="M76.8501 46.9048C76.8501 60.8933 62.4387 72.2335 44.6608 72.2335C26.8829 72.2335 12.4712 60.8933 12.4712 46.9048C12.4712 38.2322 17.9894 30.571 26.4691 26.0278C34.9489 21.4842 40.2277 16.8306 44.6608 16.8306C49.0936 16.8306 52.883 20.629 62.8525 26.0278C71.3322 30.571 76.8501 38.2322 76.8501 46.9048Z" fill="#FBF0DF"/>
<path d="M76.8498 46.9048C76.8454 45.1077 76.598 43.3195 76.1141 41.5889C73.6035 72.2149 36.2451 73.6862 21.5576 64.5261C28.1602 69.6436 36.3079 72.3617 44.6605 72.2331C62.4108 72.2331 76.8498 60.8751 76.8498 46.9048Z" fill="#F6DECE"/>
<path d="M32.2726 24.3447C36.3835 21.8798 41.8465 17.2534 47.2176 17.2443C46.3913 16.9773 45.5291 16.8378 44.6608 16.8306C42.435 16.8306 40.0624 17.9804 37.0733 19.7092C36.034 20.3162 34.9579 20.988 33.8176 21.6865C31.6742 23.0111 29.2188 24.51 26.4597 26.0092C17.7046 30.7457 12.4712 38.5541 12.4712 46.9048V47.9994C18.0447 28.3084 28.1708 26.8092 32.2726 24.3447Z" fill="#FFFEFC"/>
<path fill-rule="evenodd" clip-rule="evenodd" d="M42.0117 19.1572C42.0248 21.3289 41.569 23.4778 40.6754 25.4572C39.7818 27.4365 38.4714 29.1996 36.8338 30.626C36.5763 30.856 36.7786 31.2974 37.1099 31.1684C40.2091 29.9638 44.3937 26.3586 42.6282 19.0839C42.5544 18.6697 42.0117 18.7802 42.0117 19.1572ZM44.0994 19.1572C45.2247 20.9934 45.9396 23.0511 46.1952 25.1894C46.4508 27.3276 46.241 29.4959 45.5802 31.5455C45.4697 31.8677 45.8654 32.1435 46.0862 31.8768C48.1003 29.3015 49.8567 24.188 44.5961 18.6697C44.3294 18.4307 43.9156 18.7987 44.0994 19.1202V19.1572ZM46.6381 19.001C48.4004 20.2485 49.8747 21.8595 50.9614 23.7253C52.0481 25.5911 52.7221 27.6682 52.9377 29.8166C52.9306 29.893 52.9527 29.9692 52.9994 30.0301C53.0462 30.0909 53.1142 30.1318 53.1898 30.1445C53.2655 30.1573 53.3432 30.141 53.4073 30.0989C53.4714 30.0569 53.5173 29.9921 53.5357 29.9176C54.3818 26.708 53.9037 21.2359 46.9414 18.394C46.5734 18.2469 46.3344 18.7435 46.6381 18.9643V19.001ZM29.6601 28.5659C31.7564 27.9396 33.6973 26.8789 35.3564 25.4527C37.0155 24.0266 38.3557 22.267 39.2896 20.2885C39.4549 19.9575 39.9795 20.0861 39.8966 20.4542C38.3055 27.8117 32.9805 29.3473 29.6696 29.1453C29.3201 29.1544 29.3292 28.6669 29.6601 28.5659Z" fill="#CCBEA7"/>
<path d="M44.6607 74.5417C25.6411 74.5417 10.1719 62.144 10.1719 46.9047C10.1719 37.7079 15.8558 29.1268 25.3745 23.9856C28.1336 22.5144 30.4971 21.0336 32.6034 19.7367C33.7003 19.0543 34.804 18.3829 35.9143 17.7227C39.1425 15.8096 41.9016 14.5312 44.6607 14.5312C47.4198 14.5312 49.8295 15.6349 52.8458 17.4193C53.7656 17.9432 54.6855 18.5135 55.6696 19.1391C57.9593 20.5552 60.5437 22.1554 63.9466 23.9856C73.4656 29.1268 79.1495 37.6984 79.1495 46.9047C79.1495 62.144 63.6799 74.5417 44.6607 74.5417ZM44.6607 16.8308C42.4349 16.8308 40.0623 17.9802 37.0732 19.7091C36.0339 20.3161 34.9578 20.9878 33.8175 21.6864C31.6741 23.011 29.2187 24.5099 26.4596 26.0091C17.7045 30.7456 12.4711 38.5539 12.4711 46.9047C12.4711 60.875 26.9104 72.2425 44.6607 72.2425C62.411 72.2425 76.85 60.875 76.85 46.9047C76.85 38.5539 71.6169 30.7456 62.8524 26.0276C59.3758 24.188 56.6628 22.4591 54.4646 21.0979C53.4623 20.4818 52.5425 19.9114 51.7055 19.4058C48.9187 17.7503 46.8862 16.8305 44.6607 16.8305" fill="black"/>
<path d="M51.1446 53.6188C50.7314 55.3109 49.791 56.8279 48.4592 57.9505C47.4592 58.9198 46.1647 59.5282 44.7803 59.6794C43.3543 59.5522 42.0143 58.9423 40.9818 57.9505C39.6635 56.8226 38.7363 55.3062 38.3331 53.6188C38.3195 53.5186 38.3292 53.4166 38.3613 53.3207C38.3934 53.2248 38.4472 53.1376 38.5184 53.0659C38.5894 52.9939 38.6759 52.9392 38.7713 52.9059C38.8667 52.8726 38.9684 52.8615 39.0688 52.8737H50.418C50.5177 52.8629 50.6185 52.875 50.7128 52.909C50.807 52.943 50.8924 52.998 50.9622 53.0699C51.032 53.1417 51.0847 53.2284 51.1162 53.3234C51.1478 53.4185 51.1575 53.5194 51.1446 53.6188Z" fill="#B71422"/>
<path d="M40.9818 58.0241C42.0124 59.0163 43.3475 59.6319 44.7712 59.7715C46.1916 59.6299 47.5231 59.0144 48.5512 58.0241C48.8799 57.7176 49.1872 57.3888 49.4706 57.04C48.9043 56.397 48.2123 55.8767 47.4373 55.5113C46.6622 55.146 45.8205 54.9432 44.9641 54.9155C44.0478 54.9369 43.1504 55.1809 42.3493 55.6263C41.5482 56.0717 40.8675 56.7052 40.3657 57.4723C40.5772 57.6652 40.7613 57.8494 40.9818 58.0241Z" fill="#FF6164"/>
<path d="M41.129 57.2975C41.585 56.7082 42.1687 56.2298 42.8361 55.8985C43.5036 55.5671 44.2375 55.3914 44.9826 55.3845C46.36 55.4252 47.6722 55.9795 48.6616 56.9386C48.8714 56.7091 49.0737 56.473 49.2683 56.2306C48.0982 55.1163 46.552 54.4827 44.9365 54.4556C44.0731 54.4628 43.2221 54.6612 42.4446 55.0365C41.667 55.4119 40.9822 55.9547 40.4395 56.6262C40.6567 56.8623 40.887 57.0864 41.129 57.2975Z" fill="black"/>
<path d="M44.7434 60.2312C43.2108 60.0969 41.7686 59.4486 40.6507 58.3915C39.2271 57.1876 38.225 55.5605 37.7906 53.7474C37.7594 53.5859 37.7646 53.4195 37.806 53.2604C37.8473 53.1012 37.9237 52.9533 38.0296 52.8275C38.1557 52.6754 38.3149 52.554 38.495 52.4727C38.6752 52.3914 38.8715 52.3524 39.069 52.3585H50.4179C50.6151 52.3543 50.8109 52.3942 50.9907 52.4753C51.1705 52.5565 51.3299 52.6768 51.4572 52.8275C51.562 52.9539 51.637 53.1021 51.6768 53.2613C51.7166 53.4205 51.7202 53.5866 51.6872 53.7474C51.2526 55.5606 50.2505 57.1876 48.8267 58.3915C47.7114 59.4467 46.2728 60.0949 44.7434 60.2312ZM39.069 53.4251C38.9215 53.4251 38.8848 53.4898 38.8757 53.508C39.2644 55.0804 40.1438 56.4882 41.3864 57.5273C42.295 58.4225 43.4765 58.9889 44.7434 59.1366C46.007 58.9903 47.187 58.431 48.1002 57.5455C49.3388 56.5048 50.2148 55.0974 50.6017 53.5265C50.5818 53.4969 50.5541 53.4735 50.5216 53.4589C50.4891 53.4443 50.4532 53.439 50.4179 53.4437L39.069 53.4251Z" fill="black"/>
<path d="M58.6585 54.1886C61.6298 54.1886 64.0387 52.7722 64.0387 51.0248C64.0387 49.2778 61.6298 47.8613 58.6585 47.8613C55.6868 47.8613 53.2783 49.2778 53.2783 51.0248C53.2783 52.7722 55.6868 54.1886 58.6585 54.1886ZM30.8192 54.1886C33.7908 54.1886 36.1994 52.7722 36.1994 51.0248C36.1994 49.2778 33.7908 47.8613 30.8192 47.8613C27.8475 47.8613 25.439 49.2778 25.439 51.0248C25.439 52.7722 27.8475 54.1886 30.8192 54.1886Z" fill="#FEBBD0"/>
<path fill-rule="evenodd" clip-rule="evenodd" d="M33.3483 49.7557C34.098 49.7571 34.8386 49.5922 35.5168 49.2729C36.195 48.9536 36.7939 48.4877 37.2703 47.909C37.7467 47.3302 38.0888 46.6529 38.2718 45.926C38.4549 45.1991 38.4744 44.4406 38.3289 43.7052C38.1428 42.7636 37.6931 41.8942 37.0321 41.1981C36.3711 40.5021 35.5261 40.0081 34.5953 39.7737C33.6645 39.5392 32.6863 39.5739 31.7745 39.8736C30.8627 40.1734 30.0547 40.726 29.4447 41.4671C28.8347 42.2082 28.4476 43.1072 28.3286 44.0597C28.2097 45.0121 28.3636 45.9788 28.7726 46.8472C29.1816 47.7155 29.8287 48.4499 30.6388 48.9648C31.4488 49.4797 32.3885 49.754 33.3483 49.7557ZM56.1293 49.7557C57.1332 49.7631 58.1165 49.4721 58.9547 48.9197C59.7929 48.3672 60.4481 47.5783 60.8371 46.6529C61.128 45.9611 61.2617 45.2134 61.2285 44.4637C61.1952 43.714 60.9959 42.9811 60.6448 42.3178C60.2938 41.6545 59.7998 41.0775 59.1986 40.6284C58.5974 40.1793 57.9039 39.8694 57.1683 39.7209C56.4327 39.5725 55.6733 39.5893 54.945 39.7701C54.2167 39.951 53.5376 40.2913 52.9568 40.7666C52.3761 41.2418 51.9081 41.8401 51.5867 42.5183C51.2654 43.1964 51.0987 43.9375 51.0986 44.6879C51.0959 46.0264 51.6239 47.3113 52.5668 48.2612C53.5098 49.2112 54.7909 49.7485 56.1293 49.7557Z" fill="black"/>
<path fill-rule="evenodd" clip-rule="evenodd" d="M31.7848 45.0098C32.1615 45.0112 32.5302 44.9008 32.8442 44.6927C33.1582 44.4845 33.4035 44.1879 33.5489 43.8404C33.6943 43.4929 33.7334 43.11 33.6613 42.7403C33.5891 42.3705 33.4089 42.0305 33.1435 41.7632C32.9228 41.5413 32.6508 41.3772 32.3516 41.2855C32.0524 41.1938 31.7352 41.1772 31.4281 41.2373C31.1209 41.2974 30.8333 41.4323 30.5908 41.63C30.3482 41.8277 30.1581 42.0822 30.0372 42.3708C29.9164 42.6595 29.8686 42.9736 29.8981 43.2851C29.9276 43.5967 30.0334 43.8962 30.2062 44.1571C30.379 44.418 30.6134 44.6323 30.8888 44.7811C31.1641 44.9298 31.4719 45.0084 31.7848 45.0098ZM54.5658 45.0098C54.9427 45.0114 55.3116 44.9012 55.6258 44.6932C55.9401 44.4852 56.1856 44.1887 56.3314 43.8411C56.4765 43.4933 56.5154 43.1103 56.4429 42.7405C56.3705 42.3706 56.1901 42.0305 55.9245 41.7632C55.7256 41.5636 55.485 41.4106 55.2199 41.3153C54.9547 41.2199 54.6718 41.1846 54.3914 41.2118C54.1109 41.239 53.84 41.3281 53.5982 41.4726C53.3564 41.6171 53.1496 41.8135 52.9928 42.0476C52.7489 42.4118 52.6382 42.8491 52.6794 43.2855C52.7207 43.7219 52.9113 44.1306 53.2191 44.4427C53.5701 44.7989 54.0473 45.0026 54.5473 45.0098H54.5658Z" fill="white"/>
</g>
<defs>
<clipPath id="clip0_891_381">
<rect width="93" height="93" fill="white"/>
</clipPath>
</defs>
</svg>
