<svg width="93" height="93" viewBox="0 0 93 93" fill="none" xmlns="http://www.w3.org/2000/svg">
<g clip-path="url(#clip0_891_321)">
<path d="M93 13.0149C93 5.62723 87.0422 -0.37915 79.7143 -0.37915H13.2857C5.95781 -0.37915 0 5.62723 0 13.0149V79.985C0 87.3726 5.95781 93.379 13.2857 93.379H79.7143C87.0422 93.379 93 87.3726 93 79.985V13.0149ZM37.5529 86.0332C30.5571 86.0332 26.5092 82.3917 24.4333 77.9759L31.5536 73.6438C32.9237 76.0923 34.1692 78.1642 37.1792 78.1642C40.044 78.1642 41.8708 77.0341 41.8708 72.6183V42.6701H50.6103V72.7438C50.6103 81.8685 45.296 86.0332 37.5529 86.0332ZM55.3641 77.0341L62.4844 72.8903C64.3527 75.9668 66.8022 78.2479 71.0993 78.2479C74.7114 78.2479 77.0364 76.4272 77.0364 73.8949C77.0364 70.8812 74.6699 69.8139 70.6634 68.035L68.4837 67.0932C62.173 64.3935 58.0004 60.9822 58.0004 53.8039C58.0004 47.1906 63.0034 42.1678 70.7879 42.1678C76.3513 42.1678 80.3371 44.1141 83.2018 49.2206L76.3929 53.6155C74.8982 50.9158 73.279 49.8484 70.7672 49.8484C68.2138 49.8484 66.5946 51.4808 66.5946 53.6155C66.5946 56.2524 68.2138 57.3198 71.9712 58.9731L74.1509 59.9149C81.5826 63.1169 85.7551 66.4026 85.7551 73.7693C85.7551 81.6802 79.569 86.0332 71.2862 86.0332C63.1694 86.0332 57.9174 82.1406 55.3641 77.0341Z" fill="#179FBD"/>
<path d="M37.5529 86.0332C30.5571 86.0332 26.5092 82.3917 24.4333 77.9759L31.5536 73.6438C32.9237 76.0923 34.1692 78.1642 37.1792 78.1642C40.044 78.1642 41.8708 77.0341 41.8708 72.6183V42.6701H50.6103V72.7438C50.6103 81.8685 45.296 86.0332 37.5529 86.0332Z" fill="white"/>
<path d="M55.3641 77.0341L62.4844 72.8903C64.3527 75.9668 66.8022 78.2479 71.0993 78.2479C74.7114 78.2479 77.0364 76.4272 77.0364 73.8949C77.0364 70.8812 74.6699 69.8139 70.6634 68.035L68.4837 67.0932C62.173 64.3935 58.0004 60.9822 58.0004 53.8039C58.0004 47.1906 63.0034 42.1678 70.7879 42.1678C76.3513 42.1678 80.3371 44.1141 83.2018 49.2206L76.3929 53.6155C74.8982 50.9158 73.279 49.8484 70.7672 49.8484C68.2138 49.8484 66.5946 51.4808 66.5946 53.6155C66.5946 56.2524 68.2138 57.3198 71.9712 58.9731L74.1509 59.9149C81.5826 63.1169 85.7551 66.4026 85.7551 73.7693C85.7551 81.6802 79.569 86.0332 71.2862 86.0332C63.1694 86.0332 57.9174 82.1406 55.3641 77.0341Z" fill="white"/>
</g>
<defs>
<clipPath id="clip0_891_321">
<rect width="93" height="93" fill="white"/>
</clipPath>
</defs>
</svg>
