<svg width="93" height="93" viewBox="0 0 93 93" fill="none" xmlns="http://www.w3.org/2000/svg">
<g clip-path="url(#clip0_891_333)">
<path d="M71.2031 0H21.7969C9.75879 0 0 9.75879 0 21.7969V71.2031C0 83.2412 9.75879 93 21.7969 93H71.2031C83.2412 93 93 83.2412 93 71.2031V21.7969C93 9.75879 83.2412 0 71.2031 0Z" fill="#179FBD"/>
<path fill-rule="evenodd" clip-rule="evenodd" d="M78.4128 28.45C78.4361 28.5383 78.4484 28.6294 78.4484 28.7214V42.9616C78.4484 43.1444 78.4008 43.3238 78.3107 43.4818C78.2208 43.6396 78.0909 43.7708 77.934 43.8622L66.147 50.7435V64.3829C66.1475 64.5646 66.1005 64.7433 66.0107 64.9013C65.921 65.0594 65.7915 65.1912 65.6351 65.2838L41.0308 79.6461C40.9745 79.6785 40.9131 79.6992 40.8517 79.7213C40.8285 79.7293 40.807 79.7435 40.7827 79.75C40.6107 79.7958 40.4297 79.7958 40.2577 79.75C40.2298 79.742 40.204 79.7264 40.1771 79.7162C40.1208 79.6955 40.0619 79.6774 40.0082 79.6461L15.4089 65.2838C15.2523 65.1922 15.1225 65.061 15.0326 64.9034C14.9421 64.7449 14.8945 64.5654 14.8945 64.3829V21.6621C14.8945 21.5684 14.9072 21.4775 14.9305 21.3896C14.9378 21.3595 14.9559 21.3322 14.9661 21.3024C14.9854 21.2479 15.0032 21.1924 15.0315 21.1415C15.0507 21.1077 15.0787 21.0805 15.102 21.0496C15.131 21.0078 15.1583 20.9649 15.1928 20.9286C15.2218 20.8988 15.2607 20.8767 15.2938 20.8509C15.3308 20.8196 15.3643 20.7858 15.4064 20.7611H15.4078L27.7075 13.5802C27.8629 13.4894 28.0396 13.4417 28.2195 13.4417C28.3994 13.4417 28.5761 13.4894 28.7315 13.5802L41.0319 20.7611H41.0344C41.0751 20.7873 41.11 20.8196 41.1471 20.8494C41.1801 20.8756 41.2172 20.8988 41.2466 20.9275C41.2826 20.9649 41.3083 21.0078 41.3389 21.0496C41.3607 21.0805 41.3901 21.1077 41.4079 21.1415C41.4373 21.1934 41.454 21.2479 41.4747 21.3024C41.4849 21.3322 41.5027 21.3595 41.5103 21.3907C41.5339 21.4793 41.5459 21.5705 41.5463 21.6621V48.3451L51.7959 42.3608V28.7195C51.7959 28.6287 51.8086 28.5368 51.8319 28.45C51.841 28.4187 51.8573 28.3915 51.8678 28.3617C51.8882 28.3072 51.906 28.2513 51.9343 28.2008C51.9536 28.167 51.9816 28.1397 52.0033 28.1085C52.0342 28.0671 52.0597 28.0242 52.0956 27.9879C52.125 27.9581 52.1621 27.9359 52.1955 27.9098C52.2337 27.8789 52.2671 27.8451 52.3081 27.8204H52.3096L64.611 20.6391C64.7663 20.5482 64.943 20.5003 65.1229 20.5003C65.3028 20.5003 65.4795 20.5482 65.6348 20.6391L77.9351 27.8204C77.9787 27.8466 78.0117 27.8785 78.0503 27.9087C78.0822 27.9345 78.1193 27.9581 78.1487 27.9864C78.1847 28.0242 78.2101 28.0671 78.241 28.1085C78.2639 28.1397 78.2922 28.1666 78.31 28.2008C78.3394 28.2516 78.3561 28.3072 78.3765 28.3617C78.3881 28.3915 78.4052 28.4187 78.4128 28.45ZM76.3977 42.3608V30.5189L72.0932 33.0313L66.1466 36.5032V48.3451L76.3988 42.3608H76.3977ZM64.0973 63.782V51.9325L58.2482 55.3201L41.5448 64.9866V76.9477L64.0973 63.782ZM16.9449 23.4596V63.782L39.4948 76.9466V64.9877L27.7144 58.2271L27.7107 58.2245L27.7053 58.222C27.6657 58.1987 27.6326 58.1649 27.5952 58.1362C27.5632 58.1105 27.5262 58.0897 27.4982 58.061L27.4957 58.0574C27.4622 58.0247 27.439 57.9848 27.411 57.9481C27.3856 57.9132 27.3547 57.8834 27.3344 57.8471L27.3329 57.8431C27.3097 57.8042 27.2955 57.7573 27.2792 57.7134C27.2624 57.6745 27.2406 57.6382 27.2305 57.5964V57.595C27.2178 57.5459 27.2152 57.494 27.2098 57.4431C27.2047 57.4042 27.1945 57.3654 27.1945 57.3265V29.4443L21.2494 25.971L16.9449 23.4607V23.4596ZM28.2211 15.6799L17.973 21.6624L28.2186 27.6442L38.4657 21.661L28.2186 15.6803L28.2211 15.6799ZM33.5508 53.0122L39.4963 49.5417V23.4596L35.1914 25.9724L29.2452 29.4439V55.5264L33.5508 53.0122ZM65.1233 22.7392L54.8758 28.7214L65.1233 34.7031L75.3689 28.7199L65.1233 22.7392ZM64.0977 36.5032L58.1512 33.0313L53.847 30.5189V42.3608L59.7921 45.8312L64.0977 48.3451V36.5032ZM40.5189 63.1891L55.549 54.4878L63.0624 50.1401L52.8229 44.1619L41.0333 51.0446L30.2882 57.3174L40.5189 63.1891Z" fill="#FF2D20"/>
</g>
<defs>
<clipPath id="clip0_891_333">
<rect width="93" height="93" fill="white"/>
</clipPath>
</defs>
</svg>
