<svg width="93" height="93" viewBox="0 0 93 93" fill="none" xmlns="http://www.w3.org/2000/svg">
<g clip-path="url(#clip0_891_355)">
<path d="M71.2031 0H21.7969C9.75879 0 0 9.75879 0 21.7969V71.2031C0 83.2412 9.75879 93 21.7969 93H71.2031C83.2412 93 93 83.2412 93 71.2031V21.7969C93 9.75879 83.2412 0 71.2031 0Z" fill="#179FBD"/>
<mask id="mask0_891_355" style="mask-type:luminance" maskUnits="userSpaceOnUse" x="13" y="13" width="67" height="67">
<path d="M13.8047 13.8047H79.1953V79.1953H13.8047V13.8047Z" fill="white"/>
</mask>
<g mask="url(#mask0_891_355)">
<path fill-rule="evenodd" clip-rule="evenodd" d="M74.037 64.7403C70.4804 64.6415 67.7213 65.0059 65.409 65.9788C64.7431 66.2461 63.6747 66.2461 63.5868 67.0842C63.9428 67.4359 63.9857 68.0113 64.2978 68.4988C64.8307 69.3834 65.7658 70.575 66.61 71.1933L69.456 73.2269C71.1903 74.2866 73.1469 74.906 74.8365 75.9668C75.8152 76.5858 76.7932 77.3814 77.7719 78.0451C78.2703 78.3986 78.5722 78.9744 79.1952 79.1942V79.0605C78.8842 78.6642 78.7945 78.0898 78.4846 77.6459L77.1488 76.365C75.8603 74.6416 74.2582 73.1376 72.5239 71.9013C71.1006 70.9288 67.9887 69.6032 67.4104 67.9688L67.3228 67.8696C68.2997 67.7708 69.456 67.4268 70.3907 67.1616C71.9038 66.7653 73.2813 66.8524 74.8365 66.455L76.9726 65.836V65.4396C76.172 64.6444 75.594 63.5833 74.7497 62.8327C72.4821 60.8881 69.99 58.987 67.4104 57.3962C66.0321 56.5127 64.2527 55.9369 62.7854 55.1871C62.2503 54.9216 61.3621 54.789 61.0511 54.3472C60.2486 53.3765 59.8051 52.0934 59.2271 50.9436L55.5808 43.2537C54.7805 41.5299 54.2901 39.8062 53.3132 38.2154C48.7319 30.7016 43.7502 26.1501 36.101 21.6853C34.4564 20.7571 32.4998 20.3579 30.4192 19.8726L27.0843 19.6945C26.3716 19.3854 25.6606 18.5451 25.038 18.147C22.503 16.5558 15.9654 13.109 14.0959 17.6518C12.8953 20.5243 15.8756 23.3524 16.8874 24.8117C17.6448 25.8282 18.6217 26.9769 19.1568 28.1263C19.4558 28.8772 19.5557 29.6735 19.8677 30.4691C20.5783 32.4134 21.246 34.58 22.18 36.3928C22.6784 37.321 23.2019 38.2945 23.8246 39.1337C24.1806 39.6289 24.8036 39.841 24.9362 40.6363C24.3132 41.5208 24.2703 42.8454 23.9143 43.9519C22.3126 48.9463 22.9356 55.1337 25.2032 58.8109C25.916 59.9152 27.5955 62.347 29.8743 61.4181C31.8756 60.6225 31.4292 58.1035 32.0071 55.8933C32.1416 55.3637 32.0522 55.0098 32.3181 54.6553V54.7545L34.1421 58.4225C35.5208 60.588 37.9232 62.8426 39.9234 64.3462C40.99 65.1418 41.8354 66.5128 43.169 66.9981V66.8644H43.0814C42.814 66.4681 42.4133 66.2897 42.0577 65.9806C41.2574 65.1853 40.3681 64.2125 39.745 63.329C37.8781 60.8543 36.2336 58.1134 34.7652 55.2852C34.0528 53.9153 33.4298 52.4124 32.8536 51.0424C32.5844 50.5117 32.5844 49.715 32.1408 49.4516C31.4728 50.4223 30.4963 51.2644 30.0047 52.4571C29.1594 54.357 29.0718 56.6998 28.7609 59.1309C28.5814 59.1752 28.661 59.1309 28.5814 59.2297C27.1599 58.8773 26.6695 57.4169 26.1365 56.1807C24.8025 53.0427 24.5791 48.0043 25.7355 44.3799C26.0464 43.4517 27.3822 40.5345 26.8489 39.6507C26.5801 38.8108 25.6926 38.3254 25.2022 37.6617C24.6242 36.8218 24.0033 35.7618 23.6026 34.8336C22.536 32.3571 22.0027 29.6179 20.8453 27.1429C20.3102 25.9935 19.3773 24.7997 18.6206 23.74C17.7752 22.5463 16.8434 21.706 16.1757 20.2925C15.9534 19.7974 15.6424 19.0109 15.9981 18.4797C16.086 18.1263 16.2651 17.9846 16.6193 17.9054C17.1969 17.4099 18.844 18.038 19.422 18.3014C21.0666 18.9651 22.4452 19.5834 23.8239 20.5105C24.4469 20.9522 25.1146 21.7925 25.9149 22.0145H26.85C28.2733 22.3232 29.8732 22.1133 31.2057 22.5096C33.5634 23.2623 35.6974 24.366 37.6111 25.5604C43.4363 29.2289 48.2407 34.4441 51.4859 40.6769C52.0192 41.6934 52.2415 42.6216 52.732 43.6824C53.6671 45.849 54.8234 48.0581 55.7552 50.1807C56.6903 52.258 57.5792 54.381 58.9132 56.1044C59.5809 57.0326 62.2481 57.5179 63.4484 58.0044C64.3384 58.4007 65.716 58.7575 66.5185 59.2428C68.0294 60.171 69.5417 61.2318 70.964 62.2482C71.6745 62.7772 73.8996 63.8826 74.0319 64.7643L74.037 64.7403ZM28.6838 26.3331C28.0696 26.3278 27.4572 26.402 26.862 26.554V26.6532H26.9495C27.3056 27.3605 27.9286 27.8469 28.3729 28.466L29.3966 30.5875L29.4845 30.4887C30.1072 30.047 30.4192 29.3397 30.4192 28.28C30.1522 27.9708 30.1083 27.6606 29.8859 27.3514C29.6189 26.9097 29.041 26.6877 28.6838 26.3353V26.3331Z" fill="white"/>
</g>
</g>
<defs>
<clipPath id="clip0_891_355">
<rect width="93" height="93" fill="white"/>
</clipPath>
</defs>
</svg>
