<svg width="93" height="93" viewBox="0 0 93 93" fill="none" xmlns="http://www.w3.org/2000/svg">
<g clip-path="url(#clip0_893_418)">
<path d="M71.2031 0H21.7969C9.75879 0 0 9.75879 0 21.7969V71.2031C0 83.2412 9.75879 93 21.7969 93H71.2031C83.2412 93 93 83.2412 93 71.2031V21.7969C93 9.75879 83.2412 0 71.2031 0Z" fill="#179FBD"/>
<path d="M44.121 10.1915C43.9648 10.2057 43.4675 10.2555 43.0199 10.2907C32.7005 11.2211 23.0343 16.7894 16.912 25.3476C13.5033 30.1062 11.3225 35.5039 10.499 41.2216C10.208 43.2174 10.1724 43.807 10.1724 46.5127C10.1724 49.2188 10.208 49.8084 10.4993 51.8039C12.4734 65.4473 22.1824 76.9107 35.3499 81.1578C37.708 81.9178 40.1936 82.4362 43.0203 82.7486C44.1214 82.8692 48.8796 82.8692 49.9807 82.7486C54.86 82.2088 58.9934 81.0016 63.0701 78.9203C63.695 78.601 63.8159 78.5156 63.7305 78.4448C63.6739 78.4019 61.0103 74.8294 57.8145 70.5115L52.0049 62.6635L44.7248 51.8893C40.7192 45.966 37.4239 41.122 37.3952 41.122C37.3669 41.1151 37.3385 45.9021 37.3244 51.7473C37.3029 61.9816 37.296 62.3936 37.1682 62.6348C36.9836 62.9828 36.8416 63.1249 36.543 63.2814C36.3159 63.3948 36.1168 63.4162 35.0444 63.4162H33.8158L33.4888 63.2102C33.2864 63.0834 33.122 62.9043 33.0129 62.6918L32.864 62.3722L32.8785 48.1323L32.8996 33.8851L33.1197 33.6079C33.2335 33.459 33.475 33.2672 33.6454 33.1749C33.9364 33.0328 34.0501 33.0187 35.2787 33.0187C36.7279 33.0187 36.9691 33.0753 37.3458 33.4873C37.4522 33.601 41.3938 39.5385 46.11 46.6904C50.8844 53.9295 55.6618 61.1666 60.4421 68.4019L66.1951 77.1167L66.4864 76.9248C69.0643 75.2487 71.7918 72.8623 73.9508 70.3763C78.5459 65.0993 81.5077 58.6649 82.502 51.8039C82.793 49.8084 82.8286 49.2188 82.8286 46.5127C82.8286 43.807 82.793 43.2174 82.502 41.2216C80.5276 27.5782 70.8185 16.1152 57.651 11.8681C55.3286 11.115 52.8572 10.5966 50.0872 10.2842C49.4053 10.213 44.7106 10.1352 44.1214 10.1919M58.9934 32.1664C59.3341 32.3368 59.6113 32.6634 59.7109 33.0041C59.7675 33.189 59.7817 37.1379 59.7675 46.0368L59.7461 58.8069L57.4948 55.355L55.2363 51.9035V42.6209C55.2363 36.6195 55.2646 33.2457 55.3072 33.0822C55.4209 32.6848 55.6693 32.3724 56.0105 32.1875C56.3015 32.0385 56.4083 32.024 57.5232 32.024C58.5745 32.024 58.7591 32.0385 58.9934 32.1664Z" fill="white"/>
</g>
<defs>
<clipPath id="clip0_893_418">
<rect width="93" height="93" fill="white"/>
</clipPath>
</defs>
</svg>
