<svg width="93" height="93" viewBox="0 0 93 93" fill="none" xmlns="http://www.w3.org/2000/svg">
<g clip-path="url(#clip0_891_397)">
<path d="M6.83162 0C3.04575 0 0 3.04575 0 6.83162V86.1684C0 89.9542 3.04575 93 6.83162 93H86.1684C89.9542 93 93 89.9542 93 86.1684V6.83162C93 3.04575 89.9542 0 86.1684 0H6.83162ZM19.8787 20.6266L73.4971 20.7003L73.4622 74.3148H60.0393L60.078 34.0845H46.686L46.655 74.2838H19.8129L19.8787 20.6266Z" fill="#179FBD"/>
<path d="M19.8787 20.6266L73.4971 20.7003L73.4622 74.3148H60.0393L60.078 34.0845H46.686L46.655 74.2838H19.8129L19.8787 20.6266Z" fill="#CB3837"/>
</g>
<defs>
<clipPath id="clip0_891_397">
<rect width="93" height="93" fill="white"/>
</clipPath>
</defs>
</svg>
