<svg width="93" height="93" viewBox="0 0 93 93" fill="none" xmlns="http://www.w3.org/2000/svg">
<g clip-path="url(#clip0_891_363)">
<path d="M71.2031 0H21.7969C9.75879 0 0 9.75879 0 21.7969V71.2031C0 83.2412 9.75879 93 21.7969 93H71.2031C83.2412 93 93 83.2412 93 71.2031V21.7969C93 9.75879 83.2412 0 71.2031 0Z" fill="#179FBD"/>
<path d="M66.1172 18.1641H79.1953L46.5 74.5635L13.8047 18.1641H38.8166L46.5 31.2422L54.0199 18.1641H66.1172Z" fill="#41B883"/>
<path d="M13.8047 18.1641L46.5 74.5635L79.1953 18.1641H66.1172L46.5 52.0037L26.7193 18.1641H13.8047Z" fill="#41B883"/>
<path d="M26.7192 18.1641L46.4999 52.1672L66.1171 18.1641H54.0198L46.4999 31.2422L38.8165 18.1641H26.7192Z" fill="white"/>
<g clip-path="url(#clip1_891_363)">
<path d="M71.2031 0H21.7969C9.75879 0 0 9.75879 0 21.7969V71.2031C0 83.2412 9.75879 93 21.7969 93H71.2031C83.2412 93 93 83.2412 93 71.2031V21.7969C93 9.75879 83.2412 0 71.2031 0Z" fill="#179FBD"/>
<path d="M50.4187 68.781H75.4023C76.1957 68.7814 76.9753 68.5743 77.6626 68.1809C78.3486 67.789 78.9193 67.2233 79.317 66.5407C79.7133 65.8606 79.922 65.0875 79.9216 64.3004C79.9212 63.5133 79.7118 62.7404 79.3148 62.0607L62.5367 33.2576C62.1388 32.5753 61.5684 32.0097 60.8827 31.6177C60.1945 31.2241 59.4155 31.0171 58.6227 31.0171C57.8299 31.0171 57.0509 31.2241 56.3627 31.6177C55.677 32.0097 55.1066 32.5753 54.7087 33.2576L50.4187 40.6275L42.0306 26.2161C41.6324 25.5338 41.0617 24.9684 40.3758 24.5766C39.6875 24.1831 38.9083 23.9761 38.1155 23.9761C37.3226 23.9761 36.5435 24.1831 35.8551 24.5766C35.1693 24.9684 34.5986 25.5339 34.2004 26.2161L13.3215 62.0607C12.9247 62.7404 12.7154 63.5132 12.7148 64.3003C12.7148 65.0868 12.923 65.8595 13.3197 66.5407C13.7175 67.2233 14.2881 67.789 14.9741 68.1809C15.6623 68.5746 16.4415 68.7815 17.2344 68.781H32.9173C39.1308 68.781 43.7133 66.076 46.8662 60.7987L54.5213 47.6591L58.6216 40.6275L70.927 61.7494H54.5213L50.4187 68.781ZM32.6615 61.7421L21.717 61.7396L38.1227 33.5787L46.3086 47.6591L40.8277 57.0703C38.7338 60.4946 36.3554 61.7421 32.6615 61.7421Z" fill="#00DC82"/>
</g>
</g>
<defs>
<clipPath id="clip0_891_363">
<rect width="93" height="93" fill="white"/>
</clipPath>
<clipPath id="clip1_891_363">
<rect width="93" height="93" fill="white"/>
</clipPath>
</defs>
</svg>
