<svg width="93" height="93" viewBox="0 0 93 93" fill="none" xmlns="http://www.w3.org/2000/svg">
<g clip-path="url(#clip0_891_317)">
<path d="M71.2031 0H21.7969C9.75879 0 0 9.75879 0 21.7969V71.2031C0 83.2412 9.75879 93 21.7969 93H71.2031C83.2412 93 93 83.2412 93 71.2031V21.7969C93 9.75879 83.2412 0 71.2031 0Z" fill="#179FBD"/>
<path d="M17.8582 36.4175H28.1783C31.2073 36.4429 33.4023 37.3162 34.7631 39.036C36.124 40.7558 36.573 43.1048 36.1109 46.083C35.9314 47.4438 35.5333 48.7785 34.9171 50.0878C34.3264 51.397 33.5054 52.5777 32.4526 53.6305C31.1688 54.9652 29.7956 55.8123 28.3323 56.172C26.869 56.5316 25.3541 56.7111 23.7884 56.7111H19.1674L17.7041 64.0276H12.3516L17.8582 36.4175ZM22.3636 40.8074L20.0531 52.3597C20.2072 52.3852 20.3612 52.3982 20.5152 52.3982H21.0543C23.5188 52.4237 25.5728 52.1803 27.2156 51.6666C28.8583 51.1275 29.9627 49.2537 30.5272 46.0444C30.9893 43.3489 30.5273 41.7955 29.141 41.385C27.7801 40.9745 26.0734 40.782 24.0194 40.8074C23.7114 40.8328 23.4164 40.8459 23.1337 40.8459H22.3251L22.3636 40.8074ZM42.2082 29.0625H47.5223L46.0205 36.4175H50.7954C53.414 36.4691 55.3648 37.0082 56.6486 38.0348C57.9579 39.0615 58.343 41.013 57.8039 43.888L55.2238 56.7111H49.8327L52.2972 44.4656C52.5537 43.1818 52.4767 42.2707 52.0662 41.7316C51.6557 41.1925 50.77 40.9229 49.4092 40.9229L45.1348 40.8844L41.9771 56.7111H36.6631L42.2082 29.0625ZM63.5103 36.4175H73.8304C76.8594 36.4429 79.0544 37.3162 80.4152 39.036C81.7761 40.7558 82.2251 43.1048 81.763 46.083C81.5835 47.4438 81.1854 48.7785 80.5692 50.0878C79.9785 51.397 79.1575 52.5777 78.1047 53.6305C76.8209 54.9652 75.4477 55.8123 73.9844 56.172C72.5211 56.5316 71.0062 56.7111 69.4405 56.7111H64.8195L63.3562 64.0276H58.0037L63.5103 36.4175ZM68.0157 40.8074L65.7052 52.3597C65.8593 52.3852 66.0133 52.3982 66.1673 52.3982H66.7064C69.1709 52.4237 71.2249 52.1803 72.8677 51.6666C74.5104 51.1275 75.6148 49.2537 76.1794 46.0444C76.6414 43.3489 76.1794 41.7955 74.7931 41.385C73.4322 40.9745 71.7255 40.782 69.6715 40.8074C69.3635 40.8328 69.0685 40.8459 68.7859 40.8459H67.9772L68.0157 40.8074Z" fill="white"/>
</g>
<defs>
<clipPath id="clip0_891_317">
<rect width="93" height="93" fill="white"/>
</clipPath>
</defs>
</svg>
