<svg width="93" height="93" viewBox="0 0 93 93" fill="none" xmlns="http://www.w3.org/2000/svg">
<g clip-path="url(#clip0_891_404)">
<path d="M71.2031 0H21.7969C9.75879 0 0 9.75879 0 21.7969V71.2031C0 83.2412 9.75879 93 21.7969 93H71.2031C83.2412 93 93 83.2412 93 71.2031V21.7969C93 9.75879 83.2412 0 71.2031 0Z" fill="#179FBD"/>
<path d="M73.9203 54.0157C66.5384 55.5378 66.0022 53.0373 66.0022 53.0373C73.8004 41.4661 77.0623 26.7786 74.2472 23.1847C66.5744 13.3761 53.2892 18.0174 53.0669 18.1376L52.9953 18.1504C51.3727 17.8247 49.723 17.6527 48.0681 17.6367C44.727 17.5858 42.1931 18.5129 40.2674 19.9715C40.2674 19.9715 16.5684 10.209 17.6716 32.2504C17.9067 36.94 24.3898 67.7553 32.1291 58.4321C34.9798 55.0041 37.7128 52.1251 37.7128 52.1251C39.0667 53.0268 40.6939 53.4867 42.3976 53.3207L42.5302 53.2084C42.4914 53.65 42.5095 54.0946 42.584 54.5315C40.5918 56.7588 41.1792 57.1497 37.1944 57.9696C33.1638 58.7997 35.5342 60.2786 37.077 60.667C38.9519 61.1371 43.2891 61.8011 46.2215 57.699L46.1038 58.1661C46.8856 58.7921 47.432 62.2353 47.3401 65.3566C47.2482 68.4782 47.1868 70.6187 47.8 72.2942C48.4129 73.97 49.0261 77.735 54.2624 76.6364C58.6381 75.6992 60.9036 73.2648 61.2229 69.2139C61.4478 66.3323 61.9534 66.7563 61.9894 64.1817L62.3981 62.9607C62.8653 59.0526 62.4744 57.7934 65.1692 58.3808L65.8257 58.4397C67.8106 58.5291 70.4085 58.1204 71.9306 57.4127C75.2128 55.8906 77.1593 53.3461 73.9228 54.0157H73.9203Z" fill="#336791"/>
<path d="M53.0644 17.654C52.247 17.9094 66.2551 12.5329 74.2193 22.7066C77.0293 26.3005 73.7725 40.988 65.9739 52.5588M46.5355 55.8669C46.3313 63.1365 46.5867 70.457 47.2969 72.2145C48.0068 73.9717 49.5318 77.4509 54.7707 76.332C59.1464 75.3947 60.7401 73.5783 61.43 69.5706L63.0466 56.7558L46.5355 55.8669ZM40.2572 19.4243C40.2572 19.4243 16.5426 9.72834 17.6462 31.769C17.8813 36.4586 24.364 67.2739 32.1038 57.9507C34.9286 54.5456 37.4832 51.8817 37.4832 51.8817L34.5 47.5V42.5L34 32.5L36.5 24.5L40.2572 19.4243Z" stroke="white" stroke-width="1.82876" stroke-linecap="round" stroke-linejoin="round"/>
<path d="M65.9768 52.5538C65.9768 52.5538 66.4879 55.0571 73.8952 53.5295C77.1317 52.8604 75.1827 55.4044 71.903 56.9269C69.2107 58.1784 63.1722 58.4978 63.0727 56.7736C62.8173 52.3162 66.2503 53.6701 66.0026 52.5538C65.7777 51.5475 64.2399 50.5615 63.2285 48.0992C62.3421 45.9533 51.0699 29.4781 66.3549 31.9223C66.9169 31.8075 62.3701 17.3631 48.0659 17.1534C33.7617 16.9438 34.214 34.7399 34.214 34.7399" stroke="white" stroke-width="1.82876" stroke-linecap="round" stroke-linejoin="bevel"/>
<path d="M42.5328 54.0813C40.5406 56.3086 41.128 56.6994 37.1435 57.5194C33.1126 58.3495 35.4833 59.8284 37.0258 60.2167C38.9007 60.6868 43.2379 61.3509 46.1703 57.2458C47.0644 55.9943 46.1652 54.0021 44.9392 53.4964C44.3467 53.2512 43.5547 52.9446 42.5382 54.0838L42.5328 54.0813Z" stroke="white" stroke-width="1.82876" stroke-linejoin="round"/>
<path d="M42.4029 54.0427C42.1984 52.7324 42.8319 51.1768 43.5087 49.3531C44.5256 46.6202 46.8705 43.8868 44.9956 35.2099C43.5985 28.7471 34.2164 33.8635 34.2164 34.7398C34.2164 35.616 34.6403 39.1845 34.0631 43.335C33.3045 48.7555 37.5113 53.338 42.3542 52.8704" stroke="white" stroke-width="1.82876" stroke-linecap="round" stroke-linejoin="round"/>
<path d="M40.1707 34.6098C40.1271 34.9084 40.7196 35.708 41.4887 35.8152C42.2574 35.9227 42.9139 35.2993 42.9574 34.9978C43.0007 34.6962 42.4082 34.3693 41.6395 34.2621C40.8704 34.155 40.2089 34.3133 40.1707 34.6098Z" fill="white" stroke="white" stroke-width="0.610312"/>
<path d="M63.5781 33.9994C63.6188 34.298 63.0288 35.0973 62.2601 35.2048C61.491 35.312 60.8295 34.6889 60.7913 34.3874C60.7528 34.0859 61.3406 33.7589 62.1093 33.6518C62.878 33.5446 63.5396 33.703 63.5781 33.9994Z" fill="white" stroke="white" stroke-width="0.304066"/>
<path d="M66.3268 31.9277C66.4544 34.2778 65.8208 35.8741 65.7391 38.3749C65.6217 42.007 67.4712 46.1655 64.6841 50.329" stroke="white" stroke-width="1.82876" stroke-linecap="round" stroke-linejoin="round"/>
</g>
<defs>
<clipPath id="clip0_891_404">
<rect width="93" height="93" fill="white"/>
</clipPath>
</defs>
</svg>
