<svg width="93" height="93" viewBox="0 0 93 93" fill="none" xmlns="http://www.w3.org/2000/svg">
<g clip-path="url(#clip0_891_323)">
<path d="M71.2031 0H21.7969C9.75879 0 0 9.75879 0 21.7969V71.2031C0 83.2412 9.75879 93 21.7969 93H71.2031C83.2412 93 93 83.2412 93 71.2031V21.7969C93 9.75879 83.2412 0 71.2031 0Z" fill="#179FBD"/>
<path d="M46.5005 53.3846C50.2438 53.3846 53.2779 50.3501 53.2779 46.6072C53.2779 42.8643 50.2438 39.8298 46.5005 39.8298C42.7576 39.8298 39.7231 42.8643 39.7231 46.6072C39.7231 50.3501 42.7576 53.3846 46.5005 53.3846Z" fill="#00D8FF"/>
<path d="M46.5007 32.8271C55.6002 32.8271 64.0534 34.1328 70.4272 36.3274C78.1066 38.971 82.8281 42.9783 82.8281 46.6071C82.8281 50.3885 77.8243 54.6458 69.5774 57.3781C63.3428 59.4437 55.1385 60.5219 46.5007 60.5219C37.6447 60.5219 29.2583 59.5098 22.9532 57.3552C14.9763 54.6287 10.1719 50.3166 10.1719 46.6071C10.1719 43.0077 14.6802 39.0313 22.2517 36.3917C28.6491 34.1611 37.3108 32.8271 46.4993 32.8271H46.5007Z" stroke="#00D8FF" stroke-width="3"/>
<path d="M34.505 39.7568C39.0511 31.8743 44.4048 25.2037 49.49 20.779C55.6163 15.4471 61.447 13.3589 64.5901 15.1713C67.8658 17.0604 69.0541 23.5225 67.3013 32.0312C65.9771 38.4639 62.8115 46.1095 58.4961 53.5923C54.0717 61.2641 49.0057 68.0233 43.9899 72.4074C37.643 77.9554 31.5068 79.9633 28.2936 78.1102C25.1756 76.3134 23.9833 70.4206 25.4793 62.5429C26.7431 55.8865 29.9149 47.7166 34.5035 39.7568H34.505Z" stroke="#00D8FF" stroke-width="3"/>
<path d="M34.5159 53.6122C29.9571 45.7385 26.8532 37.7673 25.5577 31.152C23.9982 23.1812 25.1007 17.0872 28.2413 15.2693C31.5141 13.3745 37.7055 15.5723 44.2017 21.3405C49.1133 25.7013 54.1567 32.2611 58.4845 39.7367C62.9216 47.4012 66.2471 55.1663 67.5407 61.701C69.1777 69.9708 67.8528 76.2893 64.6424 78.1475C61.5277 79.9508 55.8274 78.0418 49.7494 72.8113C44.614 68.3923 39.1198 61.5645 34.5159 53.6122Z" stroke="#00D8FF" stroke-width="3"/>
</g>
<defs>
<clipPath id="clip0_891_323">
<rect width="93" height="93" fill="white"/>
</clipPath>
</defs>
</svg>
