<svg width="93" height="93" viewBox="0 0 93 93" fill="none" xmlns="http://www.w3.org/2000/svg">
<g clip-path="url(#clip0_893_424)">
<path d="M71.2031 0H21.7969C9.75879 0 0 9.75879 0 21.7969V71.2031C0 83.2412 9.75879 93 21.7969 93H71.2031C83.2412 93 93 83.2412 93 71.2031V21.7969C93 9.75879 83.2412 0 71.2031 0Z" fill="#179FBD"/>
<path d="M48.9843 66.2368C48.9554 65.8376 48.9383 65.5805 48.9383 65.5805C48.9383 65.5805 47.8596 57.4381 46.5736 55.0072C46.3712 54.6206 46.5946 53.0418 47.1638 50.6979C47.4963 51.3372 48.8948 54.0841 49.1774 54.969C49.4943 55.9665 49.5589 56.2525 49.5589 56.2525C49.5589 56.2525 48.7911 51.8326 47.5325 49.2541C47.8384 48.1048 48.1651 46.9625 48.5124 45.8279C48.9882 46.7631 50.1324 49.0321 50.3843 49.8201C50.4341 49.9804 50.4781 50.1171 50.5163 50.2434C50.5275 50.1685 50.5407 50.0936 50.5525 50.017C50.264 48.6476 49.6967 46.2654 48.9212 44.5034C50.6424 34.4803 56.5156 21.084 62.5345 15.1067H23.2637C20.6296 15.1067 18.4771 17.5162 18.4771 20.46V68.8968C18.4771 71.8406 20.6315 74.2501 23.2642 74.2501H49.13C48.934 71.5851 48.8855 68.909 48.9848 66.2373" fill="#0B7FCC"/>
<path d="M47.1638 50.6981C47.4963 51.3368 48.8948 54.0821 49.1769 54.9686C49.4943 55.9661 49.5588 56.2521 49.5588 56.2521C49.5588 56.2521 48.7911 51.8323 47.5324 49.2538C47.8386 48.1036 48.1653 46.9604 48.5124 45.8249C48.9461 46.6818 49.9412 48.6517 50.2981 49.583L50.3382 49.0574C50.0214 47.6924 49.5397 45.9042 48.9212 44.5031C50.5065 35.2767 55.6105 23.1913 61.1096 16.6682H23.2632C22.3643 16.6691 21.5024 17.0688 20.8667 17.7796C20.231 18.4905 19.8735 19.4543 19.8726 20.4597V65.3636C28.443 61.6826 38.7787 58.3199 47.6738 58.4653C47.3452 57.0407 46.9691 55.7528 46.5736 55.0069C46.3711 54.6202 46.5946 53.0398 47.1638 50.6981Z" fill="url(#paint0_linear_893_424)"/>
<path d="M71.6976 13.5207C69.0082 10.8377 65.7496 11.9167 62.537 15.1061C62.0408 15.6025 61.5653 16.1243 61.1121 16.6696C55.611 23.1916 50.509 35.2759 48.9237 44.5028C49.5408 45.9045 50.0239 47.6922 50.3388 49.0572C50.4209 49.4072 50.4953 49.7364 50.5549 50.0164C50.6943 50.6765 50.7686 51.108 50.7686 51.108C50.7686 51.108 50.7192 50.8985 50.5168 50.2428C50.4786 50.117 50.4346 49.9781 50.3848 49.8201C50.3589 49.74 50.3308 49.6609 50.3006 49.5827C49.9417 48.6514 48.9486 46.6816 48.5129 45.8273C48.1403 47.0578 47.8102 48.2117 47.533 49.2535C48.7936 51.832 49.5618 56.2519 49.5618 56.2519C49.5618 56.2519 49.4948 55.9659 49.1794 54.9684C48.8968 54.0819 47.4968 51.3371 47.1663 50.6978C46.5971 53.039 46.3717 54.62 46.5761 55.0072C46.9716 55.752 47.3457 57.0427 47.6763 58.4651C48.4215 61.6736 48.9408 65.581 48.9408 65.581C48.9408 65.581 48.9559 65.8375 48.9867 66.2373C48.8875 68.9088 48.936 71.5847 49.132 74.2495C49.3784 77.5909 49.8425 80.4637 50.4346 81.9998L50.8395 81.7543C49.9686 78.7273 49.6151 74.7581 49.7696 70.1846C50.0043 63.1884 51.4429 54.7545 54.1001 45.9641C58.5943 32.6914 64.8274 22.0448 70.5309 16.9606C65.3315 22.2116 58.2951 39.2096 56.188 45.5047C53.8311 52.5545 52.1598 59.1678 51.151 65.5061C52.8869 59.5654 58.5087 57.0131 58.5087 57.0131C58.5087 57.0131 61.2651 53.208 64.4876 47.7775C62.5561 48.2713 59.3874 49.113 58.3273 49.6106C56.7626 50.3456 56.3386 50.595 56.3386 50.595C56.3386 50.595 61.4099 47.1431 65.7614 45.5796C71.7436 35.0413 78.2608 20.069 71.6981 13.5213" fill="#003956"/>
</g>
<defs>
<linearGradient id="paint0_linear_893_424" x1="43.6495" y1="17.6604" x2="43.6495" y2="62.6532" gradientUnits="userSpaceOnUse">
<stop stop-color="#95D7F4"/>
<stop offset="0.92" stop-color="#0F7FCC"/>
<stop offset="1" stop-color="#0F7FCC"/>
</linearGradient>
<clipPath id="clip0_893_424">
<rect width="93" height="93" fill="white"/>
</clipPath>
</defs>
</svg>
