<svg width="93" height="93" viewBox="0 0 93 93" fill="none" xmlns="http://www.w3.org/2000/svg">
<g clip-path="url(#clip0_891_375)">
<path d="M71.2031 0H21.7969C9.75879 0 0 9.75879 0 21.7969V71.2031C0 83.2412 9.75879 93 21.7969 93H71.2031C83.2412 93 93 83.2412 93 71.2031V21.7969C93 9.75879 83.2412 0 71.2031 0Z" fill="#179FBD"/>
<path d="M41.717 34.5716L41.5964 35.0538L41.717 34.5716C39.4404 34.0025 37.2843 34.1417 35.2682 35.0058C33.8654 35.607 32.5473 36.5517 31.3105 37.8258C32.4206 34.6682 34.052 32.2504 36.1865 30.5428C38.8023 28.4502 42.2254 27.3828 46.5 27.3828C52.8795 27.3828 56.4418 29.7615 59.2379 32.3579C59.914 32.9857 60.5447 33.6259 61.1654 34.2558L61.2463 34.338C61.8899 34.9912 62.5259 35.6338 63.1773 36.2201C64.4816 37.394 65.8821 38.3741 67.6307 38.8112C69.9072 39.3805 72.0633 39.2414 74.0794 38.3773C75.4822 37.7761 76.8004 36.8313 78.0372 35.5572C76.9271 38.7146 75.2958 41.1323 73.1613 42.8399C70.5455 44.9325 67.1223 46 62.8477 46C56.4681 46 52.9058 43.6213 50.1098 41.025C49.4336 40.3971 48.803 39.757 48.1823 39.127L48.1014 39.0449C47.4577 38.3916 46.8218 37.749 46.1704 37.1627C44.8661 35.9888 43.4656 35.0087 41.717 34.5716ZM18.9207 54.6227C17.5179 55.2239 16.1997 56.1687 14.9629 57.4427C16.073 54.2854 17.7043 51.8677 19.8387 50.1601C22.4544 48.0675 25.8775 47 30.1523 47C36.5319 47 40.0942 49.3787 42.8902 51.975C43.5663 52.6028 44.197 53.2429 44.8176 53.8729L44.8986 53.9551C45.5423 54.6084 46.1782 55.251 46.8296 55.8373C48.1339 57.0112 49.5344 57.9913 51.283 58.4284C53.5596 58.9977 55.7156 58.8586 57.7318 57.9945C59.1346 57.3933 60.4528 56.4485 61.6895 55.1744C60.5795 58.3317 58.9482 60.7495 56.8136 62.4571C54.1978 64.5497 50.7746 65.6172 46.5 65.6172C40.1205 65.6172 36.5582 63.2385 33.7621 60.6421C33.086 60.0144 32.4554 59.3742 31.8348 58.7443L31.7537 58.662C31.1101 58.0088 30.4741 57.3662 29.8227 56.7799C28.5184 55.606 27.1179 54.6259 25.3693 54.1888C23.0929 53.6195 20.9369 53.7586 18.9207 54.6227Z" fill="url(#paint0_linear_891_375)" stroke="#141414"/>
</g>
<defs>
<linearGradient id="paint0_linear_891_375" x1="31.4238" y1="26.8828" x2="59.3965" y2="67.3887" gradientUnits="userSpaceOnUse">
<stop stop-color="#32B1C1"/>
<stop offset="1" stop-color="#14C6B7"/>
</linearGradient>
<clipPath id="clip0_891_375">
<rect width="93" height="93" fill="white"/>
</clipPath>
</defs>
</svg>
