<svg width="93" height="93" viewBox="0 0 93 93" fill="none" xmlns="http://www.w3.org/2000/svg">
<g clip-path="url(#clip0_891_337)">
<rect x="22" y="40" width="64" height="47" fill="white"/>
<mask id="mask0_891_337" style="mask-type:luminance" maskUnits="userSpaceOnUse" x="0" y="0" width="93" height="93">
<path d="M0 7C0 3.13401 3.13401 0 7 0H86C89.866 0 93 3.13401 93 7V86C93 89.866 89.866 93 86 93H7C3.13401 93 0 89.866 0 86V7Z" fill="white"/>
</mask>
<g mask="url(#mask0_891_337)">
<path d="M90.7874 3.39941e-06H2.20875C1.6226 0.00102994 1.06081 0.234598 0.646696 0.649435C0.232586 1.06427 2.50651e-06 1.62647 3.40541e-06 2.21263V90.7913C-0.00050706 91.082 0.0563758 91.3699 0.16739 91.6386C0.278404 91.9073 0.441365 92.1514 0.646928 92.357C0.852491 92.5625 1.09661 92.7255 1.36529 92.8365C1.63397 92.9475 1.92192 93.0044 2.21263 93.0039H90.7913C91.0818 93.0039 91.3695 92.9466 91.638 92.8354C91.9064 92.7243 92.1504 92.5613 92.3558 92.3558C92.5613 92.1504 92.7243 91.9064 92.8354 91.638C92.9466 91.3695 93.0039 91.0818 93.0039 90.7913V2.20875C93.0034 1.91819 92.9456 1.63057 92.834 1.36231C92.7223 1.09406 92.5589 0.850427 92.3531 0.645325C92.1473 0.440224 91.9031 0.27767 91.6344 0.166946C91.3658 0.0562211 91.0779 -0.000505919 90.7874 3.39941e-06ZM55.3583 49.7008H44.2874V84.1418H35.4291V49.7008H24.3583V42.0709H55.3583V49.7008ZM57.8383 82.1733V72.9701C57.8383 72.9701 62.868 76.7599 68.9014 76.7599C74.9348 76.7599 74.7022 72.8151 74.7022 72.2726C74.7022 66.5493 57.6058 66.5493 57.6058 53.8625C57.6058 36.611 82.5181 43.4194 82.5181 43.4194L82.2081 51.6189C82.2081 51.6189 78.0309 48.8328 73.3111 48.8328C68.5914 48.8328 66.8902 51.0803 66.8902 53.475C66.8902 59.6634 84.1418 59.0473 84.1418 71.5015C84.1418 90.6828 57.8383 82.1771 57.8383 82.1771" fill="#179FBD"/>
</g>
</g>
<defs>
<clipPath id="clip0_891_337">
<rect width="93" height="93" fill="white"/>
</clipPath>
</defs>
</svg>
