<svg width="93" height="93" viewBox="0 0 93 93" fill="none" xmlns="http://www.w3.org/2000/svg">
<g clip-path="url(#clip0_891_399)">
<path d="M71.2031 0H21.7969C9.75879 0 0 9.75879 0 21.7969V71.2031C0 83.2412 9.75879 93 21.7969 93H71.2031C83.2412 93 93 83.2412 93 71.2031V21.7969C93 9.75879 83.2412 0 71.2031 0Z" fill="#179FBD"/>
<path d="M82.4969 20.9258L48.4095 81.8796C47.7054 83.1384 45.8974 83.1457 45.1832 81.8934L10.4197 20.9312C9.64156 19.5667 10.8084 17.9138 12.3553 18.1902L46.479 24.2897C46.6968 24.3286 46.9197 24.3281 47.1373 24.2883L80.5475 18.1986C82.0889 17.9178 83.2612 19.558 82.4969 20.9258Z" fill="url(#paint0_linear_891_399)"/>
<path d="M62.7341 10.1901L37.5086 15.1325C37.307 15.1719 37.1242 15.2772 36.989 15.4319C36.8539 15.5866 36.774 15.7819 36.762 15.9869L35.2101 42.1944C35.2016 42.3381 35.2268 42.4818 35.2835 42.614C35.3402 42.7463 35.427 42.8636 35.5369 42.9565C35.6469 43.0494 35.7769 43.1154 35.9168 43.1493C36.0567 43.1831 36.2026 43.184 36.3428 43.1517L43.3661 41.5311C44.0233 41.3796 44.6169 41.9583 44.4821 42.6191L42.3954 52.8367C42.2549 53.5244 42.9008 54.1122 43.5721 53.9084L47.9101 52.5904C48.5825 52.3863 49.2288 52.9759 49.0864 53.6643L45.7703 69.7137C45.5629 70.7178 46.8983 71.2653 47.4552 70.4043L47.8272 69.8296L68.3824 28.8079C68.7268 28.1213 68.1332 27.338 67.3787 27.4833L60.1497 28.8787C59.4704 29.0095 58.8924 28.377 59.0839 27.7126L63.8025 11.3555C63.9943 10.6899 63.4142 10.0571 62.7341 10.1901Z" fill="url(#paint1_linear_891_399)"/>
</g>
<defs>
<linearGradient id="paint0_linear_891_399" x1="9.57108" y1="16.0116" x2="51.9954" y2="73.6273" gradientUnits="userSpaceOnUse">
<stop stop-color="#41D1FF"/>
<stop offset="1" stop-color="#BD34FE"/>
</linearGradient>
<linearGradient id="paint1_linear_891_399" x1="44.5206" y1="11.5317" x2="52.195" y2="64.1773" gradientUnits="userSpaceOnUse">
<stop stop-color="#FFEA83"/>
<stop offset="0.083" stop-color="#FFDD35"/>
<stop offset="1" stop-color="#FFA800"/>
</linearGradient>
<clipPath id="clip0_891_399">
<rect width="93" height="93" fill="white"/>
</clipPath>
</defs>
</svg>
